<?xml version="1.0" encoding="utf-8"?>
<!-- Generator: Adobe Illustrator 27.0.0, SVG Export Plug-In . SVG Version: 6.00 Build 0)  -->
<svg version="1.1" id="Layer_1" xmlns="http://www.w3.org/2000/svg" xmlns:xlink="http://www.w3.org/1999/xlink" x="0px" y="0px"
	 width="200px" height="200px" viewBox="0 0 200 200" style="enable-background:new 0 0 200 200;" xml:space="preserve">
<style type="text/css">
	.st0{fill:#2F5A81;}
</style>
<g>
	<path class="st0" d="M68.5,95.1c12.7,0,24.6-4.9,33.6-13.9S116,60.2,116,47.5c0-12.7-4.9-24.6-13.9-33.6C93.1,4.9,81.2,0,68.5,0
		S43.9,4.9,34.9,13.9c-9,9-13.9,20.9-13.9,33.6c0,12.7,4.9,24.6,13.9,33.6S55.8,95.1,68.5,95.1z M42.8,21.8
		c6.9-6.9,16-10.7,25.8-10.7s18.9,3.8,25.8,10.7c6.9,6.9,10.7,16,10.7,25.8c0,9.7-3.8,18.9-10.7,25.7s-16,10.7-25.8,10.7
		s-18.9-3.8-25.8-10.7s-10.7-16-10.7-25.7C32.1,37.8,35.9,28.7,42.8,21.8z"/>
	<path class="st0" d="M89.5,125.9h-42c-12.7,0-24.6,4.9-33.6,13.9c-9,9-13.9,20.9-13.9,33.6v21c0,3.1,2.5,5.6,5.6,5.6
		s5.6-2.5,5.6-5.6v-21c0-9.7,3.8-18.9,10.7-25.8c6.9-6.9,16-10.7,25.8-10.7h42c9.7,0,18.9,3.8,25.8,10.7c6.9,6.9,10.7,16,10.7,25.8
		v21c0,3.1,2.5,5.6,5.6,5.6c3.1,0,5.6-2.5,5.6-5.6v-21c0-12.7-4.9-24.6-13.9-33.6C114.1,130.9,102.2,125.9,89.5,125.9z"/>
	<path class="st0" d="M169.1,76.7c6.4-8.3,10-18.6,10-29.1c0-10.5-3.5-20.9-10-29.1c-6.4-8.3-15.6-14.3-25.8-16.9c-3-0.8-6,1-6.8,4
		c-0.8,3,1,6,4,6.8c7.8,2,14.8,6.6,19.7,13c4.9,6.4,7.7,14.3,7.7,22.3s-2.7,16-7.7,22.3c-4.9,6.4-11.9,11-19.7,13
		c-3,0.8-4.8,3.8-4,6.8c0.6,2.5,2.9,4.2,5.4,4.2c0.5,0,0.9-0.1,1.4-0.2C153.5,91,162.7,85,169.1,76.7z"/>
	<path class="st0" d="M190,144.5c-6.4-8.2-15.5-14.2-25.6-16.8c-3-0.8-6,1-6.8,4c-0.8,3,1,6,4,6.8c7.7,2,14.7,6.6,19.6,12.9
		c4.9,6.3,7.6,14.2,7.7,22.1v21c0,3.1,2.5,5.6,5.6,5.6c3.1,0,5.6-2.5,5.6-5.6v-21C199.9,163,196.4,152.7,190,144.5z"/>
</g>
</svg>
