<?xml version="1.0" encoding="utf-8"?>
<!-- Generator: Adobe Illustrator 27.0.0, SVG Export Plug-In . SVG Version: 6.00 Build 0)  -->
<svg version="1.1" id="Layer_1" xmlns="http://www.w3.org/2000/svg" xmlns:xlink="http://www.w3.org/1999/xlink" x="0px" y="0px"
	 width="200px" height="82px" viewBox="0 0 200 82" style="enable-background:new 0 0 200 82;" xml:space="preserve">
<style type="text/css">
	.st1{fill:#2F5A81;}
	.st0{fill:#FFFFFF;}
</style>
<g>
	<path class="st0" d="M88.7,73.2v1H84v2.9h4.6v1H84v3.5h-1.1v-8.4L88.7,73.2L88.7,73.2z"/>
	<path class="st0" d="M94.3,81.6l0-0.9c-0.5,0.8-1.2,1.1-2,1.1c-1.5,0-2.4-1-2.4-2.7v-3.3h1V79c0,1.1,0.5,1.8,1.7,1.8
		c1.1,0,1.8-0.9,1.8-2v-3.2h1v5.9H94.3L94.3,81.6z"/>
	<path class="st0" d="M97.1,75.7H98l0.1,0.9c0.5-0.8,1.2-1.1,2-1.1c1.5,0,2.5,1,2.5,2.8v3.3h-1v-3.3c0-1.2-0.6-1.9-1.7-1.9
		c-1.1,0-1.8,0.9-1.8,1.9v3.2h-1L97.1,75.7L97.1,75.7z"/>
	<path class="st0" d="M110,73.2v8.4H109l-0.1-1.1c-0.5,0.8-1.3,1.2-2.2,1.2c-1.7,0-3-1.1-3-3.1s1.3-3.1,3-3.1c0.8,0,1.8,0.4,2.2,1.2
		v-3.5L110,73.2L110,73.2L110,73.2z M104.8,78.6c0,1.4,0.9,2.2,2.1,2.2s2.1-0.9,2.1-2.2c0-1.3-0.9-2.1-2.1-2.1
		C105.7,76.5,104.8,77.3,104.8,78.6z"/>
	<path class="st0" d="M118.5,73.2l3.8,8.4h-1.1l-0.8-1.8h-4.8l-0.8,1.8h-1.1l3.8-8.4H118.5L118.5,73.2z M117.9,74.3l-2,4.5h4
		L117.9,74.3z"/>
	<path class="st0" d="M128.9,73.2v8.4H128l0-1.1c-0.5,0.8-1.3,1.2-2.2,1.2c-1.7,0-3-1.1-3-3.1s1.3-3.1,3-3.1c0.8,0,1.8,0.4,2.2,1.2
		v-3.5L128.9,73.2L128.9,73.2L128.9,73.2z M123.7,78.6c0,1.4,0.9,2.2,2.1,2.2c1.1,0,2.1-0.9,2.1-2.2c0-1.3-0.9-2.1-2.1-2.1
		S123.7,77.3,123.7,78.6z"/>
	<path class="st0" d="M131.6,75.7l0.1,0.9c0.4-0.7,1.1-1,1.7-1c0.8,0,1.6,0.3,2,1.3c0.4-0.9,1.3-1.3,2.1-1.3c1.6,0,2.5,1,2.5,2.6
		v3.4h-1v-3.4c0-1-0.6-1.7-1.5-1.7c-1,0-1.6,0.8-1.6,1.7v3.4h-1v-3.4c0-1-0.6-1.7-1.6-1.7c-1,0-1.6,0.8-1.6,1.8v3.3h-1v-5.9H131.6z"
		/>
	<path class="st0" d="M142.1,73.3c0.3,0,0.7,0.2,0.7,0.6c0,0.4-0.3,0.6-0.7,0.6c-0.3,0-0.6-0.2-0.6-0.6
		C141.4,73.5,141.7,73.3,142.1,73.3z M141.6,75.7h1v5.9h-1V75.7z"/>
	<path class="st0" d="M144.4,75.7h0.9l0,0.9c0.5-0.8,1.2-1.1,2-1.1c1.5,0,2.5,1,2.5,2.8v3.3h-1v-3.3c0-1.2-0.6-1.9-1.7-1.9
		c-1.1,0-1.8,0.9-1.8,1.9v3.2h-1L144.4,75.7L144.4,75.7z"/>
	<path class="st0" d="M152,73.3c0.3,0,0.7,0.2,0.7,0.6c0,0.4-0.3,0.6-0.7,0.6c-0.3,0-0.6-0.2-0.6-0.6
		C151.3,73.5,151.6,73.3,152,73.3z M151.5,75.7h1v5.9h-1V75.7z"/>
	<path class="st0" d="M158,77c-0.5-0.5-1.1-0.6-1.6-0.6c-0.8,0-1.5,0.3-1.5,0.9c0,0.6,0.8,0.8,1.5,0.9c1.1,0.1,2.5,0.3,2.5,1.8
		c0,1.2-1.1,1.8-2.5,1.8c-1,0-2-0.2-2.7-1.1l0.6-0.7c0.5,0.7,1.4,0.9,2.1,0.9c0.7,0,1.5-0.2,1.5-0.9c0-0.6-0.7-0.8-1.6-1
		c-1.1-0.1-2.4-0.5-2.4-1.7c0-1.2,1.2-1.7,2.4-1.7c0.9,0,1.6,0.2,2.2,0.8L158,77L158,77z"/>
	<path class="st0" d="M161.8,75.7h1.8v0.8h-1.8v3.2c0,0.7,0.2,1.1,0.9,1.1c0.3,0,0.5-0.1,0.8-0.2l0.3,0.8c-0.4,0.2-0.8,0.3-1.1,0.3
		c-1.3,0-1.9-0.7-1.9-2v-3.2h-1.2v-0.8h1.2v-1.6l1-0.1V75.7z"/>
	<path class="st0" d="M165.7,76.6c0.4-0.8,1.1-1,1.8-1c0.5,0,1,0.2,1.4,0.5l-0.4,0.8c-0.3-0.2-0.6-0.3-1-0.3c-0.9,0-1.7,0.7-1.7,1.8
		v3.3h-1v-5.9h0.9L165.7,76.6z"/>
	<path class="st0" d="M174.4,81.6l0-1c-0.5,0.8-1.4,1.2-2.2,1.2c-1.7,0-3-1.2-3-3.1s1.4-3.1,3-3.1c0.9,0,1.7,0.4,2.2,1.2l0-1.1h1
		v5.9L174.4,81.6L174.4,81.6z M170.2,78.7c0,1.3,1,2.2,2.1,2.2c2.9,0,2.9-4.4,0-4.3C171.1,76.5,170.2,77.3,170.2,78.7z"/>
	<path class="st0" d="M178.8,75.7h1.8v0.8h-1.8v3.2c0,0.7,0.2,1.1,0.9,1.1c0.3,0,0.5-0.1,0.8-0.2l0.3,0.8c-0.4,0.2-0.8,0.3-1.1,0.3
		c-1.3,0-1.9-0.7-1.9-2v-3.2h-1.2v-0.8h1.2v-1.6l1-0.1V75.7z"/>
	<path class="st0" d="M184.5,75.6c1.8,0,3.1,1.3,3.1,3.1c0,1.8-1.3,3.1-3.1,3.1c-1.8,0-3.1-1.3-3.1-3.1
		C181.4,76.8,182.7,75.6,184.5,75.6z M184.5,76.5c-1.2,0-2.1,0.9-2.1,2.2c0,1.3,0.9,2.2,2.1,2.2c1.2,0,2.1-0.9,2.1-2.2
		S185.7,76.5,184.5,76.5z"/>
	<path class="st0" d="M189.9,76.6c0.4-0.8,1.1-1,1.8-1c0.5,0,1,0.2,1.4,0.5l-0.4,0.8c-0.3-0.2-0.6-0.3-1-0.3c-0.9,0-1.7,0.7-1.7,1.8
		v3.3h-1v-5.9h0.9L189.9,76.6z"/>
	<path class="st0" d="M197.7,77c-0.5-0.5-1.1-0.6-1.6-0.6c-0.8,0-1.5,0.3-1.5,0.9c0,0.6,0.8,0.8,1.5,0.9c1.1,0.1,2.5,0.3,2.5,1.8
		c0,1.2-1.1,1.8-2.5,1.8c-1,0-2-0.2-2.7-1.1L194,80c0.5,0.7,1.4,0.9,2.1,0.9c0.7,0,1.5-0.2,1.5-0.9c0-0.6-0.7-0.8-1.6-1
		c-1.1-0.1-2.4-0.5-2.4-1.7c0-1.2,1.2-1.7,2.4-1.7c0.9,0,1.6,0.2,2.2,0.8L197.7,77L197.7,77z"/>
	<path class="st0" d="M140.9,0.5c-7.1-0.8-13.5,0.9-18.1,5c-4.6,4.1-7,10.1-7,17.3v31.8h11.4v-32c0-3.8,1.1-6.8,3.2-8.7
		c2.3-2.1,5.8-3,10.2-2.6l1.9,0.2V0.6L140.9,0.5z"/>
	<path class="st0" d="M185.1,38.4c-2.7,3.6-6.7,5.5-11.8,5.5c-8.4,0-13.8-6-15.3-12.5h42l0-1.7c0-8.6-3-16.4-8.6-21.8
		c-5-4.9-11.6-7.6-18.6-7.6c-15,0-27.1,12.2-27.1,27.3c0,15,12.1,27.1,27.6,27.1c12,0,21-5.9,25-16.2L185.1,38.4L185.1,38.4z
		 M172.8,11c6,0,11.4,3.9,13.7,9.7h-27.7C161.5,14.3,167.6,11,172.8,11L172.8,11z"/>
	<path class="st1" d="M81.5,0.2c-15,0-27.2,12.2-27.2,27.2h11.5c0-8.6,7-15.6,15.6-15.6c8.6,0,15.6,7,15.6,15.6s-7,15.6-15.6,15.6
		c-3.8,0-7.4-1.4-10.1-3.7l-7.5,8.7c4.8,4.1,10.9,6.5,17.6,6.5c15,0,27.2-12.2,27.2-27.2C108.7,12.4,96.6,0.2,81.5,0.2z"/>
	<path class="st0" d="M42.8,27.4c0,8.6-7,15.6-15.6,15.6s-15.6-7-15.6-15.6s7-15.6,15.6-15.6c3.8,0,7.3,1.4,10.1,3.7l7.5-8.8
		c-4.7-4-10.9-6.4-17.6-6.4C12.2,0.2,0,12.4,0,27.4c0,15,12.2,27.2,27.2,27.2c15,0,27.2-12.2,27.2-27.2L42.8,27.4L42.8,27.4z"/>
</g>
</svg>