<?xml version="1.0" encoding="utf-8"?>
<!-- Generator: Adobe Illustrator 27.0.0, SVG Export Plug-In . SVG Version: 6.00 Build 0)  -->
<svg version="1.1" id="Layer_1" xmlns="http://www.w3.org/2000/svg" xmlns:xlink="http://www.w3.org/1999/xlink" x="0px" y="0px"
	 width="200px" height="200px" viewBox="0 0 200 200" style="enable-background:new 0 0 200 200;" xml:space="preserve">
<style type="text/css">
	.st0{fill:#FFFFFF;}
</style>
<path class="st0" d="M177.8,0c5.9,0,11.5,2.3,15.7,6.5c4.2,4.2,6.5,9.8,6.5,15.7v155.6c0,5.9-2.3,11.5-6.5,15.7
	c-4.2,4.2-9.8,6.5-15.7,6.5H22.2c-5.9,0-11.5-2.3-15.7-6.5c-4.2-4.2-6.5-9.8-6.5-15.7V22.2c0-5.9,2.3-11.5,6.5-15.7
	C10.7,2.3,16.3,0,22.2,0H177.8z M172.2,172.2v-58.9c0-9.6-3.8-18.8-10.6-25.6c-6.8-6.8-16-10.6-25.6-10.6c-9.4,0-20.4,5.8-25.8,14.4
	V79.2h-31v93h31v-54.8c0-8.6,6.9-15.6,15.4-15.6c4.1,0,8.1,1.6,11,4.6c2.9,2.9,4.6,6.9,4.6,11v54.8H172.2z M43.1,61.8
	c5,0,9.7-2,13.2-5.5c3.5-3.5,5.5-8.2,5.5-13.2c0-10.3-8.3-18.8-18.7-18.8c-5,0-9.8,2-13.3,5.5c-3.5,3.5-5.5,8.3-5.5,13.3
	C24.3,53.4,32.8,61.8,43.1,61.8z M58.6,172.2v-93H27.8v93H58.6z"/>
</svg>
