<?xml version="1.0" encoding="utf-8"?>
<!-- Generator: Adobe Illustrator 27.0.0, SVG Export Plug-In . SVG Version: 6.00 Build 0)  -->
<svg version="1.1" id="Layer_1" xmlns="http://www.w3.org/2000/svg" xmlns:xlink="http://www.w3.org/1999/xlink" x="0px" y="0px"
	 width="200px" height="200px" viewBox="0 0 200 200" style="enable-background:new 0 0 200 200;" xml:space="preserve">
<style type="text/css">
	.st0{clip-path:url(#SVGID_00000102520457615675029540000010406412593751394235_);}
	.st1{fill-rule:evenodd;clip-rule:evenodd;fill:#2F5A80;}
</style>
<g>
	<g>
		<defs>
			<rect id="SVGID_1_" x="29.4" y="29.4" width="141.2" height="141.2"/>
		</defs>
		<clipPath id="SVGID_00000164492514411519144450000006282740318033171135_">
			<use xlink:href="#SVGID_1_"  style="overflow:visible;"/>
		</clipPath>
		<g style="clip-path:url(#SVGID_00000164492514411519144450000006282740318033171135_);">
			<path class="st1" d="M83.6,116.4c7.8,7.8,16.8,14.6,26.5,20.1c1.1,0.6,2.4,0.4,3.2-0.5l16-16.3c0.7-0.7,1.7-1,2.5-0.8l32.1,7.3
				c3.5,0.8,6.6,2.9,6.6,6.6v33.3c0,1.3-0.9,2.4-2.2,2.6c-31.6,6.8-70.7-6.2-101-36.4c-30.2-30-43.1-69.3-36.3-100.7
				c0.3-1.3,1.3-2.2,2.6-2.2h33.3c3.6,0,5.8,3,6.6,6.6L81,68.1c0.2,0.9-0.1,1.9-0.8,2.5L64,86.7c-0.9,0.8-1.1,2.3-0.5,3.2
				C68.9,99.7,75.6,108.5,83.6,116.4L83.6,116.4z"/>
		</g>
	</g>
</g>
</svg>
