<svg width="291" height="104" viewBox="0 0 291 104" fill="none" xmlns="http://www.w3.org/2000/svg">
<g clip-path="url(#clip0_16_1075)">
<path d="M183.463 61.0657C183.822 61.3417 183.861 61.7753 183.622 62.1301C180.035 66.3484 175.73 68.4377 170.827 68.556C165.008 68.5954 158.431 65.757 151.177 60.0801C147.23 57.0052 143.802 53.6542 140.972 50.6975C138.382 58.5032 136.07 66.9397 134.037 75.9281C134.037 76.2434 133.718 76.4406 133.399 76.48H133.16C132.761 76.4011 132.442 75.9675 132.562 75.5733L138.262 47.7803C138.262 47.7803 137.983 47.5043 137.903 47.3466C137.624 47.0707 137.664 46.5976 137.903 46.3216C138.023 46.1639 138.342 46.0457 138.581 46.0851L147.031 5.04606C147.111 4.57299 147.509 4.37588 147.908 4.45472C148.307 4.45472 148.586 4.92779 148.506 5.32202L139.896 46.9918C139.896 46.9918 140.255 47.2678 140.414 47.3072C149.901 19.6719 161.102 4.13934 169.512 0.709567C172.103 -0.315423 174.574 -0.276 176.527 0.946103C178.082 1.89225 179.038 3.82396 179.357 6.38643C180.234 14.1921 175.252 28.6603 162.058 42.064C157.155 47.0706 152.173 49.7908 147.27 50.2245C145.237 50.4216 143.484 50.1062 142.009 49.6726C144.839 52.6292 148.187 55.8619 152.014 58.858C158.949 64.3378 165.287 67.058 170.708 66.9791C175.172 66.9791 179.078 64.9686 182.347 61.1051C182.626 60.8292 183.184 60.7503 183.423 61.0263L183.463 61.0657ZM139.737 49.436C139.737 49.436 139.538 49.2389 139.458 49.1601L138.9 51.9591C139.179 51.1312 139.458 50.2639 139.737 49.436ZM141.81 48.0168C146.354 49.8302 153.289 48.8447 160.982 40.9996C166.881 35.0862 171.624 28.3449 174.574 21.6824C177.125 16.0056 178.361 10.5652 177.843 6.66239C177.643 4.53357 176.886 2.99608 175.77 2.28647C174.136 1.34033 172.262 1.26148 170.11 2.16821C164.689 4.4153 158.152 12.1027 152.213 23.4565C148.426 30.4737 144.998 38.7525 141.81 48.0562V48.0168Z" fill="#041433"/>
<path d="M202.556 43.9563C201.639 45.4544 198.809 50.0274 195.461 53.6543C192.352 56.9264 189.402 58.7793 186.692 59.1341C186.133 59.2129 185.536 59.2129 184.978 59.2129C182.028 58.8187 180.394 56.5322 180.553 53.0235C180.713 50.5793 181.669 47.8198 183.184 45.6909C184.898 43.2073 187.05 41.8275 189.203 41.7881C190.598 41.7881 191.156 42.3006 191.475 42.8131C191.993 43.7592 191.634 45.139 190.518 46.8342C188.804 49.3967 185.456 51.9197 182.825 51.5649C182.666 51.5649 182.506 51.4466 182.347 51.4072C182.267 51.9591 182.187 52.5111 182.187 53.063C182.108 54.7187 182.387 57.3995 185.257 57.7149C187.887 57.9908 191.036 56.2562 194.384 52.6293C197.693 49.0813 200.443 44.6265 201.36 43.1679C201.559 42.8525 201.998 42.6948 202.356 42.8919C202.795 43.1285 202.835 43.6015 202.635 43.9563H202.556ZM182.666 50.1457H182.745L182.985 50.1063C184.898 50.3822 187.768 48.1746 189.282 46.0063C190.04 44.7448 190.239 43.8775 190.119 43.5621C189.92 43.365 189.442 43.2467 189.203 43.2861C186.373 43.3256 183.742 46.6371 182.666 50.1063V50.1457Z" fill="#041433"/>
<path d="M230.737 40.2899C230.497 40.7236 230.179 41.3149 229.78 41.9063C227.03 46.5976 222.007 55.4283 216.068 55.1917C214.354 55.1917 212.879 54.3638 212.003 52.8658C210.767 50.6975 210.647 47.4649 211.046 44.587C210.727 45.0995 210.408 45.6909 210.089 46.2822C207.06 51.7225 204.19 56.9263 201.201 57.3205C200.882 57.36 200.563 57.3205 200.324 57.2811C199.606 57.1629 198.331 56.6109 198.012 54.1667C197.733 52.0379 198.291 49.0812 199.447 46.5187C200.842 43.4043 202.875 41.1178 205.346 40.014C206.821 39.265 208.415 39.3832 209.372 40.2505C209.81 40.5659 210.368 41.2755 210.528 42.4188C211.245 41.2361 211.883 40.1323 212.521 39.1861C212.72 38.9101 213.158 38.7919 213.517 38.989C213.876 39.265 213.996 39.6198 213.796 40.0534C212.441 42.8524 211.484 49.1206 213.278 52.0773C213.956 53.1417 214.912 53.6542 216.108 53.7331C221.091 53.9302 225.874 45.612 228.504 41.1572C228.823 40.5659 229.142 39.9746 229.461 39.5409C229.66 39.1861 230.099 39.0678 230.458 39.265C230.896 39.5015 230.936 39.9746 230.737 40.3294V40.2899ZM208.893 44.2322C209.173 42.8918 209.053 41.8668 208.415 41.3544C208.056 41.0784 207.498 40.9207 206.861 40.9995C206.542 41.039 206.263 41.1572 205.944 41.2755C203.871 42.2611 202.038 44.3505 200.842 47.0706C199.726 49.3966 199.208 52.0379 199.566 53.9302C199.646 54.4033 199.885 55.5859 200.603 55.7436C202.875 56.1379 206.263 50.0273 208.734 45.5332C208.854 45.3755 208.933 45.1784 209.053 45.0207C208.854 44.8236 208.734 44.5082 208.854 44.2716L208.893 44.2322Z" fill="#041433"/>
<path d="M248.633 37.8458C247.956 39.7381 246.042 43.6803 243.372 47.1495C240.701 50.6187 238.031 52.5899 235.559 52.9052C234.961 52.9841 234.403 52.9841 233.806 52.8264C230.657 52.235 228.903 48.411 229.062 42.4976C229.222 36.5054 230.936 27.793 233.726 19.2777C235.838 12.8518 239.027 5.51916 241.459 4.29706C242.256 3.82398 242.854 4.0211 243.093 4.25763C243.372 4.45475 243.531 4.7307 243.691 5.12493C244.249 7.60856 240.861 16.9912 238.828 22.3132C235.799 30.1583 232.331 37.7669 230.617 40.4082C230.537 41.1179 230.497 41.9063 230.497 42.6159C230.378 47.662 231.693 51.0129 234.045 51.486C239.306 52.5899 245.564 41.8275 247.159 37.4121C247.278 37.0179 247.717 36.7814 248.115 36.9785C248.514 37.0967 248.753 37.5304 248.554 37.9246L248.633 37.8458ZM231.135 36.3083C232.929 32.642 235.4 26.9651 237.592 21.2488C241.618 10.7624 242.375 6.50473 242.256 5.47974C242.096 5.55858 241.977 5.67685 241.738 5.87396C238.589 8.75182 232.929 24.0478 231.095 36.3083H231.135Z" fill="#041433"/>
</g>
<path d="M9.01876 59.0014V61.3075H2.9033V65.1992H7.8039V67.423H2.9033V73.5384H0V59.0014H9.01876Z" fill="#041433"/>
<path d="M16.2503 61.987C17.3622 61.987 18.3574 62.2204 19.236 62.6871C20.1282 63.1538 20.8283 63.8333 21.3362 64.7256C21.8441 65.6041 22.0981 66.6405 22.0981 67.8348C22.0981 69.0291 21.8441 70.0655 21.3362 70.944C20.8283 71.8225 20.1282 72.502 19.236 72.9825C18.3574 73.4492 17.3622 73.6826 16.2503 73.6826C15.1384 73.6826 14.1363 73.4492 13.2441 72.9825C12.3655 72.502 11.6723 71.8225 11.1644 70.944C10.6565 70.0655 10.4025 69.0291 10.4025 67.8348C10.4025 66.6405 10.6565 65.6041 11.1644 64.7256C11.6723 63.8333 12.3655 63.1538 13.2441 62.6871C14.1363 62.2204 15.1384 61.987 16.2503 61.987ZM16.2503 64.4991C15.4404 64.4991 14.754 64.7874 14.1912 65.3639C13.6284 65.9267 13.347 66.7503 13.347 67.8348C13.347 68.9192 13.6284 69.7497 14.1912 70.3263C14.754 70.8891 15.4404 71.1705 16.2503 71.1705C17.0602 71.1705 17.7466 70.8891 18.3094 70.3263C18.8722 69.7497 19.1536 68.9192 19.1536 67.8348C19.1536 66.7503 18.8722 65.9267 18.3094 65.3639C17.7466 64.7874 17.0602 64.4991 16.2503 64.4991Z" fill="#041433"/>
<path d="M29.277 61.987C30.7458 61.987 31.9676 62.3851 32.9422 63.1813C33.9305 63.9775 34.5483 65.0619 34.7954 66.4346H31.7273C31.6038 65.8306 31.3224 65.357 30.8831 65.0139C30.4438 64.657 29.8879 64.4785 29.2153 64.4785C28.4465 64.4785 27.8014 64.7668 27.2797 65.3433C26.7718 65.9061 26.5179 66.7366 26.5179 67.8348C26.5179 68.933 26.7718 69.7703 27.2797 70.3469C27.8014 70.9097 28.4465 71.1911 29.2153 71.1911C29.8879 71.1911 30.4438 71.0195 30.8831 70.6763C31.3224 70.3194 31.6038 69.839 31.7273 69.235H34.7954C34.5483 70.6077 33.9305 71.6921 32.9422 72.4883C31.9676 73.2845 30.7458 73.6826 29.277 73.6826C28.1651 73.6826 27.1768 73.4492 26.312 72.9825C25.4471 72.502 24.7745 71.8225 24.2941 70.944C23.8136 70.0655 23.5734 69.0291 23.5734 67.8348C23.5734 66.6405 23.8136 65.6041 24.2941 64.7256C24.7745 63.8333 25.4471 63.1538 26.312 62.6871C27.1768 62.2204 28.1651 61.987 29.277 61.987Z" fill="#041433"/>
<path d="M47.7714 62.1312V73.5384H44.8681V71.2323C44.5661 72.001 44.0651 72.605 43.365 73.0443C42.6786 73.4698 41.8824 73.6826 40.9764 73.6826C39.6586 73.6826 38.6085 73.2502 37.8261 72.3854C37.0436 71.5205 36.6524 70.3126 36.6524 68.7614V62.1312H39.5351V68.4319C39.5351 69.3379 39.7685 70.0449 40.2352 70.5528C40.7019 71.047 41.3334 71.294 42.1295 71.294C42.9669 71.294 43.6327 71.0264 44.1268 70.491C44.621 69.9556 44.8681 69.1869 44.8681 68.1848V62.1312H47.7714Z" fill="#041433"/>
<path d="M54.344 61.987C55.7305 61.987 56.8424 62.3371 57.6797 63.0371C58.5171 63.7372 59.0387 64.6707 59.2446 65.8375H56.5267C56.4168 65.2884 56.1698 64.8491 55.7854 64.5197C55.401 64.1902 54.9 64.0255 54.2823 64.0255C53.7881 64.0255 53.4037 64.1422 53.1292 64.3755C52.8546 64.6089 52.7174 64.9246 52.7174 65.3227C52.7174 65.6384 52.8272 65.8924 53.0468 66.0846C53.2665 66.2768 53.541 66.4278 53.8705 66.5376C54.1999 66.6474 54.6735 66.7778 55.2912 66.9288C56.156 67.121 56.8561 67.3269 57.3915 67.5465C57.9406 67.7524 58.4073 68.0887 58.7916 68.5555C59.1897 69.0085 59.3888 69.6262 59.3888 70.4086C59.3888 71.3833 59.0044 72.1726 58.2357 72.7766C57.4807 73.3806 56.458 73.6826 55.1677 73.6826C53.6851 73.6826 52.4977 73.3531 51.6055 72.6942C50.7132 72.0216 50.171 71.0675 49.9788 69.8321H52.7585C52.8272 70.3949 53.0743 70.841 53.4998 71.1705C53.9254 71.4862 54.4813 71.6441 55.1677 71.6441C55.6618 71.6441 56.0393 71.5274 56.3002 71.294C56.561 71.047 56.6914 70.7312 56.6914 70.3469C56.6914 70.0174 56.5747 69.7497 56.3413 69.5438C56.1217 69.3379 55.8403 69.1801 55.4971 69.0702C55.1677 68.9604 54.6941 68.83 54.0764 68.679C53.2253 68.4868 52.532 68.2947 51.9967 68.1025C51.4751 67.8966 51.0221 67.574 50.6377 67.1347C50.2671 66.6954 50.0817 66.0914 50.0817 65.3227C50.0817 64.3344 50.4592 63.5313 51.2142 62.9136C51.9692 62.2959 53.0125 61.987 54.344 61.987Z" fill="#041433"/>
<path d="M72.2789 67.4024C72.2789 67.6907 72.2446 68.0201 72.176 68.3907H63.8161C63.8573 69.4066 64.1318 70.1547 64.6397 70.6351C65.1477 71.1156 65.7791 71.3558 66.5341 71.3558C67.2067 71.3558 67.7627 71.1911 68.202 70.8616C68.6549 70.5322 68.9432 70.0861 69.0668 69.5232H72.1348C71.9838 70.3194 71.6612 71.0332 71.167 71.6647C70.6728 72.2961 70.0345 72.7903 69.2521 73.1472C68.4834 73.5041 67.6254 73.6826 66.6782 73.6826C65.5663 73.6826 64.578 73.4492 63.7132 72.9825C62.8484 72.502 62.1757 71.8225 61.6953 70.944C61.2148 70.0655 60.9746 69.0291 60.9746 67.8348C60.9746 66.6405 61.2148 65.6041 61.6953 64.7256C62.1757 63.8333 62.8484 63.1538 63.7132 62.6871C64.578 62.2204 65.5663 61.987 66.6782 61.987C67.8039 61.987 68.7854 62.2204 69.6227 62.6871C70.4738 63.1538 71.1258 63.799 71.5788 64.6226C72.0456 65.4325 72.2789 66.3591 72.2789 67.4024ZM69.355 67.1141C69.3962 66.1807 69.1491 65.4737 68.6138 64.9933C68.0921 64.5128 67.447 64.2726 66.6782 64.2726C65.8958 64.2726 65.2369 64.5128 64.7015 64.9933C64.1662 65.4737 63.871 66.1807 63.8161 67.1141H69.355Z" fill="#041433"/>
<path d="M78.8081 61.987C79.769 61.987 80.5858 62.2135 81.2584 62.6665C81.9448 63.1195 82.439 63.7304 82.741 64.4991V58.3013H85.6237V73.5384H82.741V71.1499C82.439 71.9186 81.9448 72.5364 81.2584 73.0031C80.5858 73.4561 79.769 73.6826 78.8081 73.6826C77.8472 73.6826 76.9824 73.4492 76.2137 72.9825C75.445 72.5158 74.841 71.8431 74.4017 70.9646C73.9762 70.0723 73.7634 69.0291 73.7634 67.8348C73.7634 66.6405 73.9762 65.6041 74.4017 64.7256C74.841 63.8333 75.445 63.1538 76.2137 62.6871C76.9824 62.2204 77.8472 61.987 78.8081 61.987ZM79.7141 64.5197C78.8081 64.5197 78.0806 64.8148 77.5315 65.4051C76.9824 65.9954 76.7079 66.8053 76.7079 67.8348C76.7079 68.8643 76.9824 69.6742 77.5315 70.2645C78.0806 70.8411 78.8081 71.1293 79.7141 71.1293C80.5927 71.1293 81.3133 70.8342 81.8762 70.2439C82.4527 69.6399 82.741 68.8369 82.741 67.8348C82.741 66.819 82.4527 66.0159 81.8762 65.4257C81.3133 64.8217 80.5927 64.5197 79.7141 64.5197Z" fill="#041433"/>
<path d="M98.0101 61.987C99.1221 61.987 100.117 62.2204 100.996 62.6871C101.888 63.1538 102.588 63.8333 103.096 64.7256C103.604 65.6041 103.858 66.6405 103.858 67.8348C103.858 69.0291 103.604 70.0655 103.096 70.944C102.588 71.8225 101.888 72.502 100.996 72.9825C100.117 73.4492 99.1221 73.6826 98.0101 73.6826C96.8982 73.6826 95.8962 73.4492 95.0039 72.9825C94.1254 72.502 93.4321 71.8225 92.9242 70.944C92.4163 70.0655 92.1624 69.0291 92.1624 67.8348C92.1624 66.6405 92.4163 65.6041 92.9242 64.7256C93.4321 63.8333 94.1254 63.1538 95.0039 62.6871C95.8962 62.2204 96.8982 61.987 98.0101 61.987ZM98.0101 64.4991C97.2002 64.4991 96.5139 64.7874 95.9511 65.3639C95.3883 65.9267 95.1068 66.7503 95.1068 67.8348C95.1068 68.9192 95.3883 69.7497 95.9511 70.3263C96.5139 70.8891 97.2002 71.1705 98.0101 71.1705C98.8201 71.1705 99.5064 70.8891 100.069 70.3263C100.632 69.7497 100.913 68.9192 100.913 67.8348C100.913 66.7503 100.632 65.9267 100.069 65.3639C99.5064 64.7874 98.8201 64.4991 98.0101 64.4991Z" fill="#041433"/>
<path d="M112.705 61.9664C114.023 61.9664 115.073 62.3988 115.855 63.2636C116.638 64.1285 117.029 65.3433 117.029 66.9082V73.5384H114.146V67.2377C114.146 66.3317 113.913 65.6316 113.446 65.1374C112.979 64.6295 112.341 64.3755 111.531 64.3755C110.707 64.3755 110.049 64.6432 109.554 65.1786C109.06 65.7139 108.813 66.4827 108.813 67.4848V73.5384H105.91V62.1312H108.813V64.4167C109.115 63.648 109.609 63.0509 110.296 62.6253C110.996 62.1861 111.799 61.9664 112.705 61.9664Z" fill="#041433"/>
<path d="M2.9033 97.559V102.954H0V88.4167H5.29183C7.00773 88.4167 8.29808 88.8286 9.16289 89.6522C10.0414 90.4758 10.4807 91.5946 10.4807 93.0085C10.4807 94.3949 10.0277 95.5 9.12171 96.3236C8.22945 97.1472 6.95282 97.559 5.29183 97.559H2.9033ZM4.98297 95.2323C6.68514 95.2323 7.53622 94.491 7.53622 93.0085C7.53622 92.2809 7.33718 91.725 6.93909 91.3406C6.541 90.9563 5.88896 90.7641 4.98297 90.7641H2.9033V95.2323H4.98297Z" fill="#041433"/>
<path d="M15.2698 93.7292C15.6954 93.0016 16.2582 92.4319 16.9583 92.0201C17.6584 91.5946 18.4408 91.3818 19.3056 91.3818V94.491H18.4614C16.3337 94.491 15.2698 95.4794 15.2698 97.4561V102.954H12.3665V91.5465H15.2698V93.7292Z" fill="#041433"/>
<path d="M31.6403 96.8178C31.6403 97.106 31.606 97.4355 31.5373 97.8061H23.1775C23.2187 98.8219 23.4932 99.5701 24.0011 100.051C24.509 100.531 25.1405 100.771 25.8955 100.771C26.5681 100.771 27.1241 100.606 27.5633 100.277C28.0163 99.9476 28.3046 99.5014 28.4281 98.9386H31.4962C31.3452 99.7348 31.0226 100.449 30.5284 101.08C30.0342 101.712 29.3959 102.206 28.6135 102.563C27.8447 102.92 26.9868 103.098 26.0396 103.098C24.9277 103.098 23.9394 102.865 23.0745 102.398C22.2097 101.917 21.5371 101.238 21.0566 100.359C20.5762 99.4809 20.336 98.4445 20.336 97.2502C20.336 96.0559 20.5762 95.0195 21.0566 94.141C21.5371 93.2487 22.2097 92.5692 23.0745 92.1025C23.9394 91.6358 24.9277 91.4024 26.0396 91.4024C27.1652 91.4024 28.1467 91.6358 28.9841 92.1025C29.8352 92.5692 30.4872 93.2144 30.9402 94.038C31.4069 94.8479 31.6403 95.7745 31.6403 96.8178ZM28.7164 96.5295C28.7576 95.5961 28.5105 94.8891 27.9751 94.4087C27.4535 93.9282 26.8083 93.688 26.0396 93.688C25.2572 93.688 24.5983 93.9282 24.0629 94.4087C23.5275 94.8891 23.2324 95.5961 23.1775 96.5295H28.7164Z" fill="#041433"/>
<path d="M37.6341 91.4024C39.0206 91.4024 40.1325 91.7524 40.9698 92.4525C41.8072 93.1526 42.3288 94.0861 42.5347 95.2529H39.8168C39.7069 94.7038 39.4599 94.2645 39.0755 93.9351C38.6911 93.6056 38.1901 93.4409 37.5724 93.4409C37.0782 93.4409 36.6938 93.5576 36.4193 93.7909C36.1447 94.0243 36.0075 94.34 36.0075 94.7381C36.0075 95.0538 36.1173 95.3078 36.3369 95.5C36.5566 95.6922 36.8311 95.8432 37.1606 95.953C37.49 96.0628 37.9636 96.1932 38.5813 96.3442C39.4461 96.5364 40.1462 96.7423 40.6816 96.9619C41.2307 97.1678 41.6974 97.5041 42.0817 97.9709C42.4798 98.4239 42.6789 99.0416 42.6789 99.824C42.6789 100.799 42.2945 101.588 41.5258 102.192C40.7708 102.796 39.7481 103.098 38.4578 103.098C36.9752 103.098 35.7878 102.769 34.8956 102.11C34.0033 101.437 33.4611 100.483 33.2689 99.2475H36.0487C36.1173 99.8103 36.3644 100.256 36.7899 100.586C37.2155 100.902 37.7714 101.059 38.4578 101.059C38.952 101.059 39.3294 100.943 39.5903 100.709C39.8511 100.462 39.9815 100.147 39.9815 99.7623C39.9815 99.4328 39.8648 99.1651 39.6314 98.9592C39.4118 98.7533 39.1304 98.5954 38.7872 98.4856C38.4578 98.3758 37.9842 98.2454 37.3665 98.0944C36.5154 97.9022 35.8222 97.71 35.2868 97.5179C34.7652 97.312 34.3122 96.9894 33.9278 96.5501C33.5572 96.1108 33.3719 95.5068 33.3719 94.7381C33.3719 93.7498 33.7493 92.9467 34.5043 92.329C35.2593 91.7113 36.3026 91.4024 37.6341 91.4024Z" fill="#041433"/>
<path d="M55.569 96.8178C55.569 97.106 55.5347 97.4355 55.4661 97.8061H47.1062C47.1474 98.8219 47.4219 99.5701 47.9298 100.051C48.4378 100.531 49.0692 100.771 49.8242 100.771C50.4968 100.771 51.0528 100.606 51.4921 100.277C51.945 99.9476 52.2333 99.5014 52.3569 98.9386H55.4249C55.2739 99.7348 54.9513 100.449 54.4571 101.08C53.963 101.712 53.3246 102.206 52.5422 102.563C51.7735 102.92 50.9155 103.098 49.9683 103.098C48.8564 103.098 47.8681 102.865 47.0033 102.398C46.1385 101.917 45.4658 101.238 44.9854 100.359C44.5049 99.4809 44.2647 98.4445 44.2647 97.2502C44.2647 96.0559 44.5049 95.0195 44.9854 94.141C45.4658 93.2487 46.1385 92.5692 47.0033 92.1025C47.8681 91.6358 48.8564 91.4024 49.9683 91.4024C51.094 91.4024 52.0755 91.6358 52.9128 92.1025C53.7639 92.5692 54.4159 93.2144 54.8689 94.038C55.3357 94.8479 55.569 95.7745 55.569 96.8178ZM52.6451 96.5295C52.6863 95.5961 52.4392 94.8891 51.9039 94.4087C51.3822 93.9282 50.7371 93.688 49.9683 93.688C49.1859 93.688 48.527 93.9282 47.9916 94.4087C47.4563 94.8891 47.1611 95.5961 47.1062 96.5295H52.6451Z" fill="#041433"/>
<path d="M60.5333 93.7292C60.9589 93.0016 61.5217 92.4319 62.2218 92.0201C62.9219 91.5946 63.7043 91.3818 64.5691 91.3818V94.491H63.7249C61.5972 94.491 60.5333 95.4794 60.5333 97.4561V102.954H57.63V91.5465H60.5333V93.7292Z" fill="#041433"/>
<path d="M71.1384 100.051L74.0211 91.5465H77.1097L72.8886 102.954H69.347L65.1259 91.5465H68.2351L71.1384 100.051Z" fill="#041433"/>
<path d="M83.1917 91.4024C84.1526 91.4024 84.9762 91.6289 85.6626 92.0819C86.349 92.5349 86.8363 93.1458 87.1245 93.9145V91.5465H90.0073V102.954H87.1245V100.565C86.8363 101.334 86.349 101.952 85.6626 102.418C84.9762 102.871 84.1526 103.098 83.1917 103.098C82.2308 103.098 81.366 102.865 80.5973 102.398C79.8286 101.931 79.2246 101.259 78.7853 100.38C78.3597 99.4877 78.147 98.4445 78.147 97.2502C78.147 96.0559 78.3597 95.0195 78.7853 94.141C79.2246 93.2487 79.8286 92.5692 80.5973 92.1025C81.366 91.6358 82.2308 91.4024 83.1917 91.4024ZM84.0977 93.9351C83.1917 93.9351 82.4642 94.2302 81.9151 94.8205C81.366 95.4107 81.0915 96.2206 81.0915 97.2502C81.0915 98.2797 81.366 99.0896 81.9151 99.6799C82.4642 100.256 83.1917 100.545 84.0977 100.545C84.9762 100.545 85.6969 100.25 86.2597 99.6593C86.8363 99.0553 87.1245 98.2523 87.1245 97.2502C87.1245 96.2344 86.8363 95.4313 86.2597 94.8411C85.6969 94.2371 84.9762 93.9351 84.0977 93.9351Z" fill="#041433"/>
<path d="M98.7332 100.462V102.954H97.2095C95.9329 102.954 94.9514 102.645 94.265 102.027C93.5924 101.41 93.2561 100.38 93.2561 98.9386V93.9968H91.6706V91.5465H93.2561V88.7256H96.1594V91.5465H98.7126V93.9968H96.1594V98.9798C96.1594 99.5289 96.2692 99.9133 96.4888 100.133C96.7085 100.353 97.0791 100.462 97.6007 100.462H98.7332Z" fill="#041433"/>
<path d="M100.493 88.2726C100.493 87.8059 100.658 87.4284 100.987 87.1401C101.317 86.8381 101.749 86.6871 102.284 86.6871C102.82 86.6871 103.252 86.8381 103.582 87.1401C103.911 87.4284 104.076 87.8059 104.076 88.2726C104.076 88.7256 103.911 89.1031 103.582 89.4051C103.252 89.6934 102.82 89.8375 102.284 89.8375C101.749 89.8375 101.317 89.6934 100.987 89.4051C100.658 89.1031 100.493 88.7256 100.493 88.2726ZM103.726 91.5465V102.954H100.822V91.5465H103.726Z" fill="#041433"/>
<path d="M111.623 91.4024C112.735 91.4024 113.731 91.6358 114.609 92.1025C115.501 92.5692 116.201 93.2487 116.709 94.141C117.217 95.0195 117.471 96.0559 117.471 97.2502C117.471 98.4445 117.217 99.4809 116.709 100.359C116.201 101.238 115.501 101.917 114.609 102.398C113.731 102.865 112.735 103.098 111.623 103.098C110.511 103.098 109.509 102.865 108.617 102.398C107.739 101.917 107.045 101.238 106.537 100.359C106.03 99.4809 105.776 98.4445 105.776 97.2502C105.776 96.0559 106.03 95.0195 106.537 94.141C107.045 93.2487 107.739 92.5692 108.617 92.1025C109.509 91.6358 110.511 91.4024 111.623 91.4024ZM111.623 93.9145C110.813 93.9145 110.127 94.2028 109.564 94.7793C109.001 95.3421 108.72 96.1657 108.72 97.2502C108.72 98.3346 109.001 99.1651 109.564 99.7417C110.127 100.304 110.813 100.586 111.623 100.586C112.433 100.586 113.12 100.304 113.682 99.7417C114.245 99.1651 114.527 98.3346 114.527 97.2502C114.527 96.1657 114.245 95.3421 113.682 94.7793C113.12 94.2028 112.433 93.9145 111.623 93.9145Z" fill="#041433"/>
<path d="M126.318 91.3818C127.636 91.3818 128.686 91.8142 129.468 92.679C130.251 93.5438 130.642 94.7587 130.642 96.3236V102.954H127.759V96.6531C127.759 95.7471 127.526 95.047 127.059 94.5528C126.592 94.0449 125.954 93.7909 125.144 93.7909C124.321 93.7909 123.662 94.0586 123.168 94.594C122.673 95.1293 122.426 95.8981 122.426 96.9001V102.954H119.523V91.5465H122.426V93.8321C122.728 93.0634 123.222 92.4663 123.909 92.0407C124.609 91.6015 125.412 91.3818 126.318 91.3818Z" fill="#041433"/>
<path d="M142.149 91.4024C143.11 91.4024 143.933 91.6289 144.62 92.0819C145.306 92.5349 145.793 93.1458 146.082 93.9145V91.5465H148.964V102.954H146.082V100.565C145.793 101.334 145.306 101.952 144.62 102.418C143.933 102.871 143.11 103.098 142.149 103.098C141.188 103.098 140.323 102.865 139.554 102.398C138.786 101.931 138.182 101.259 137.742 100.38C137.317 99.4877 137.104 98.4445 137.104 97.2502C137.104 96.0559 137.317 95.0195 137.742 94.141C138.182 93.2487 138.786 92.5692 139.554 92.1025C140.323 91.6358 141.188 91.4024 142.149 91.4024ZM143.055 93.9351C142.149 93.9351 141.421 94.2302 140.872 94.8205C140.323 95.4107 140.049 96.2206 140.049 97.2502C140.049 98.2797 140.323 99.0896 140.872 99.6799C141.421 100.256 142.149 100.545 143.055 100.545C143.933 100.545 144.654 100.25 145.217 99.6593C145.793 99.0553 146.082 98.2523 146.082 97.2502C146.082 96.2344 145.793 95.4313 145.217 94.8411C144.654 94.2371 143.933 93.9351 143.055 93.9351Z" fill="#041433"/>
<path d="M158.39 91.3818C159.708 91.3818 160.758 91.8142 161.541 92.679C162.323 93.5438 162.715 94.7587 162.715 96.3236V102.954H159.832V96.6531C159.832 95.7471 159.598 95.047 159.132 94.5528C158.665 94.0449 158.027 93.7909 157.217 93.7909C156.393 93.7909 155.734 94.0586 155.24 94.594C154.746 95.1293 154.499 95.8981 154.499 96.9001V102.954H151.596V91.5465H154.499V93.8321C154.801 93.0634 155.295 92.4663 155.981 92.0407C156.681 91.6015 157.484 91.3818 158.39 91.3818Z" fill="#041433"/>
<path d="M169.737 91.4024C170.698 91.4024 171.515 91.6289 172.188 92.0819C172.874 92.5349 173.368 93.1458 173.67 93.9145V87.7167H176.553V102.954H173.67V100.565C173.368 101.334 172.874 101.952 172.188 102.418C171.515 102.871 170.698 103.098 169.737 103.098C168.776 103.098 167.912 102.865 167.143 102.398C166.374 101.931 165.77 101.259 165.331 100.38C164.905 99.4877 164.693 98.4445 164.693 97.2502C164.693 96.0559 164.905 95.0195 165.331 94.141C165.77 93.2487 166.374 92.5692 167.143 92.1025C167.912 91.6358 168.776 91.4024 169.737 91.4024ZM170.643 93.9351C169.737 93.9351 169.01 94.2302 168.461 94.8205C167.912 95.4107 167.637 96.2206 167.637 97.2502C167.637 98.2797 167.912 99.0896 168.461 99.6799C169.01 100.256 169.737 100.545 170.643 100.545C171.522 100.545 172.243 100.25 172.805 99.6593C173.382 99.0553 173.67 98.2523 173.67 97.2502C173.67 96.2344 173.382 95.4313 172.805 94.8411C172.243 94.2371 171.522 93.9351 170.643 93.9351Z" fill="#041433"/>
<path d="M191.245 102.954L187.848 97.2914H186.571V102.954H183.668V88.4167H189.207C190.895 88.4167 192.179 88.8286 193.057 89.6522C193.95 90.4758 194.396 91.5603 194.396 92.9055C194.396 94.0037 194.087 94.9234 193.469 95.6647C192.865 96.406 191.987 96.9001 190.834 97.1472L194.458 102.954H191.245ZM186.571 95.2941H188.96C190.621 95.2941 191.451 94.5597 191.451 93.0908C191.451 92.3908 191.246 91.8485 190.834 91.4642C190.436 91.0661 189.811 90.867 188.96 90.867H186.571V95.2941Z" fill="#041433"/>
<path d="M207.084 96.8178C207.084 97.106 207.05 97.4355 206.981 97.8061H198.621C198.663 98.8219 198.937 99.5701 199.445 100.051C199.953 100.531 200.584 100.771 201.339 100.771C202.012 100.771 202.568 100.606 203.007 100.277C203.46 99.9476 203.748 99.5014 203.872 98.9386H206.94C206.789 99.7348 206.466 100.449 205.972 101.08C205.478 101.712 204.84 102.206 204.057 102.563C203.289 102.92 202.431 103.098 201.483 103.098C200.372 103.098 199.383 102.865 198.518 102.398C197.654 101.917 196.981 101.238 196.5 100.359C196.02 99.4809 195.78 98.4445 195.78 97.2502C195.78 96.0559 196.02 95.0195 196.5 94.141C196.981 93.2487 197.654 92.5692 198.518 92.1025C199.383 91.6358 200.372 91.4024 201.483 91.4024C202.609 91.4024 203.591 91.6358 204.428 92.1025C205.279 92.5692 205.931 93.2144 206.384 94.038C206.851 94.8479 207.084 95.7745 207.084 96.8178ZM204.16 96.5295C204.201 95.5961 203.954 94.8891 203.419 94.4087C202.897 93.9282 202.252 93.688 201.483 93.688C200.701 93.688 200.042 93.9282 199.507 94.4087C198.971 94.8891 198.676 95.5961 198.621 96.5295H204.16Z" fill="#041433"/>
<path d="M213.078 91.4024C214.464 91.4024 215.576 91.7524 216.414 92.4525C217.251 93.1526 217.773 94.0861 217.979 95.2529H215.261C215.151 94.7038 214.904 94.2645 214.519 93.9351C214.135 93.6056 213.634 93.4409 213.016 93.4409C212.522 93.4409 212.138 93.5576 211.863 93.7909C211.589 94.0243 211.451 94.34 211.451 94.7381C211.451 95.0538 211.561 95.3078 211.781 95.5C212 95.6922 212.275 95.8432 212.604 95.953C212.934 96.0628 213.407 96.1932 214.025 96.3442C214.89 96.5364 215.59 96.7423 216.125 96.9619C216.675 97.1678 217.141 97.5041 217.526 97.9709C217.924 98.4239 218.123 99.0416 218.123 99.824C218.123 100.799 217.738 101.588 216.97 102.192C216.215 102.796 215.192 103.098 213.902 103.098C212.419 103.098 211.232 102.769 210.339 102.11C209.447 101.437 208.905 100.483 208.713 99.2475H211.493C211.561 99.8103 211.808 100.256 212.234 100.586C212.659 100.902 213.215 101.059 213.902 101.059C214.396 101.059 214.773 100.943 215.034 100.709C215.295 100.462 215.425 100.147 215.425 99.7623C215.425 99.4328 215.309 99.1651 215.075 98.9592C214.856 98.7533 214.574 98.5954 214.231 98.4856C213.902 98.3758 213.428 98.2454 212.81 98.0944C211.959 97.9022 211.266 97.71 210.731 97.5179C210.209 97.312 209.756 96.9894 209.372 96.5501C209.001 96.1108 208.816 95.5068 208.816 94.7381C208.816 93.7498 209.193 92.9467 209.948 92.329C210.703 91.7113 211.746 91.4024 213.078 91.4024Z" fill="#041433"/>
<path d="M225.556 91.4024C226.668 91.4024 227.663 91.6358 228.542 92.1025C229.434 92.5692 230.134 93.2487 230.642 94.141C231.15 95.0195 231.404 96.0559 231.404 97.2502C231.404 98.4445 231.15 99.4809 230.642 100.359C230.134 101.238 229.434 101.917 228.542 102.398C227.663 102.865 226.668 103.098 225.556 103.098C224.444 103.098 223.442 102.865 222.55 102.398C221.672 101.917 220.978 101.238 220.47 100.359C219.963 99.4809 219.709 98.4445 219.709 97.2502C219.709 96.0559 219.963 95.0195 220.47 94.141C220.978 93.2487 221.672 92.5692 222.55 92.1025C223.442 91.6358 224.444 91.4024 225.556 91.4024ZM225.556 93.9145C224.746 93.9145 224.06 94.2028 223.497 94.7793C222.934 95.3421 222.653 96.1657 222.653 97.2502C222.653 98.3346 222.934 99.1651 223.497 99.7417C224.06 100.304 224.746 100.586 225.556 100.586C226.366 100.586 227.053 100.304 227.615 99.7417C228.178 99.1651 228.46 98.3346 228.46 97.2502C228.46 96.1657 228.178 95.3421 227.615 94.7793C227.053 94.2028 226.366 93.9145 225.556 93.9145Z" fill="#041433"/>
<path d="M236.359 87.7167V102.954H233.456V87.7167H236.359Z" fill="#041433"/>
<path d="M249.899 91.5465V102.954H246.995V100.648C246.693 101.416 246.192 102.02 245.492 102.46C244.806 102.885 244.01 103.098 243.104 103.098C241.786 103.098 240.736 102.666 239.953 101.801C239.171 100.936 238.78 99.7279 238.78 98.1768V91.5465H241.662V97.8473C241.662 98.7533 241.896 99.4603 242.363 99.9682C242.829 100.462 243.461 100.709 244.257 100.709C245.094 100.709 245.76 100.442 246.254 99.9064C246.748 99.371 246.995 98.6023 246.995 97.6002V91.5465H249.899Z" fill="#041433"/>
<path d="M258.633 100.462V102.954H257.11C255.833 102.954 254.852 102.645 254.165 102.027C253.493 101.41 253.156 100.38 253.156 98.9386V93.9968H251.571V91.5465H253.156V88.7256H256.06V91.5465H258.613V93.9968H256.06V98.9798C256.06 99.5289 256.169 99.9133 256.389 100.133C256.609 100.353 256.979 100.462 257.501 100.462H258.633Z" fill="#041433"/>
<path d="M260.393 88.2726C260.393 87.8059 260.558 87.4284 260.887 87.1401C261.217 86.8381 261.649 86.6871 262.185 86.6871C262.72 86.6871 263.152 86.8381 263.482 87.1401C263.811 87.4284 263.976 87.8059 263.976 88.2726C263.976 88.7256 263.811 89.1031 263.482 89.4051C263.152 89.6934 262.72 89.8375 262.185 89.8375C261.649 89.8375 261.217 89.6934 260.887 89.4051C260.558 89.1031 260.393 88.7256 260.393 88.2726ZM263.626 91.5465V102.954H260.723V91.5465H263.626Z" fill="#041433"/>
<path d="M271.524 91.4024C272.635 91.4024 273.631 91.6358 274.509 92.1025C275.402 92.5692 276.102 93.2487 276.61 94.141C277.117 95.0195 277.371 96.0559 277.371 97.2502C277.371 98.4445 277.117 99.4809 276.61 100.359C276.102 101.238 275.402 101.917 274.509 102.398C273.631 102.865 272.635 103.098 271.524 103.098C270.412 103.098 269.41 102.865 268.517 102.398C267.639 101.917 266.946 101.238 266.438 100.359C265.93 99.4809 265.676 98.4445 265.676 97.2502C265.676 96.0559 265.93 95.0195 266.438 94.141C266.946 93.2487 267.639 92.5692 268.517 92.1025C269.41 91.6358 270.412 91.4024 271.524 91.4024ZM271.524 93.9145C270.714 93.9145 270.027 94.2028 269.465 94.7793C268.902 95.3421 268.62 96.1657 268.62 97.2502C268.62 98.3346 268.902 99.1651 269.465 99.7417C270.027 100.304 270.714 100.586 271.524 100.586C272.334 100.586 273.02 100.304 273.583 99.7417C274.146 99.1651 274.427 98.3346 274.427 97.2502C274.427 96.1657 274.146 95.3421 273.583 94.7793C273.02 94.2028 272.334 93.9145 271.524 93.9145Z" fill="#041433"/>
<path d="M286.218 91.3818C287.536 91.3818 288.586 91.8142 289.369 92.679C290.151 93.5438 290.542 94.7587 290.542 96.3236V102.954H287.66V96.6531C287.66 95.7471 287.426 95.047 286.959 94.5528C286.493 94.0449 285.854 93.7909 285.045 93.7909C284.221 93.7909 283.562 94.0586 283.068 94.594C282.574 95.1293 282.327 95.8981 282.327 96.9001V102.954H279.423V91.5465H282.327V93.8321C282.629 93.0634 283.123 92.4663 283.809 92.0407C284.509 91.6015 285.312 91.3818 286.218 91.3818Z" fill="#041433"/>
<defs>
<clipPath id="clip0_16_1075">
<rect width="116.191" height="76.48" fill="white" transform="translate(132.522)"/>
</clipPath>
</defs>
</svg>
