<?xml version="1.0" encoding="utf-8"?>
<!-- Generator: Adobe Illustrator 27.0.0, SVG Export Plug-In . SVG Version: 6.00 Build 0)  -->
<svg version="1.1" id="Layer_1" xmlns="http://www.w3.org/2000/svg" xmlns:xlink="http://www.w3.org/1999/xlink" x="0px" y="0px"
	 width="761px" height="184px" viewBox="0 0 761 184" style="enable-background:new 0 0 761 184;" xml:space="preserve">
<style type="text/css">
	.st0{clip-path:url(#SVGID_00000165192518212631317230000007339193835923246986_);}
	.st1{fill:#FFFFFF;}
	.st2{fill:none;stroke:#FFFFFF;stroke-width:1.4;stroke-miterlimit:10;}
</style>
<g>
	<defs>
		<rect id="SVGID_1_" width="761" height="184"/>
	</defs>
	<clipPath id="SVGID_00000143619018478466950580000016031628619244363922_">
		<use xlink:href="#SVGID_1_"  style="overflow:visible;"/>
	</clipPath>
	<g style="clip-path:url(#SVGID_00000143619018478466950580000016031628619244363922_);">
		<path class="st1" d="M570.5,1.3C465.3,1.3,380.1,86.7,380.1,192h80.3c0-60.6,49-109.7,109.6-109.7c60.5,0,109.6,49.1,109.6,109.7
			s-49,109.7-109.6,109.7c-27,0-51.7-9.8-70.8-26L446.9,337c33.3,28.5,76.5,45.7,123.7,45.7C675.7,382.7,761,297.3,761,192
			S675.7,1.3,570.5,1.3z"/>
		<path class="st2" d="M382.2,190.8h-80.9c0,0.4,0,0.8,0,1.3c0,60.6-49,109.7-109.6,109.7c-60.5,0-109.6-49.1-109.6-109.7
			c0-60.6,49-109.7,109.6-109.7c26.9,0,51.5,9.7,70.5,25.8l52.5-61.6c-33.2-28.2-76.1-45.2-123-45.2C86.6,1.3,1.3,86.7,1.3,192
			c0,105.3,85.3,190.7,190.5,190.7S382.3,297.3,382.3,192C382.3,191.6,382.2,191.2,382.2,190.8L382.2,190.8z"/>
	</g>
</g>
</svg>
