<?xml version="1.0" encoding="utf-8"?>
<!-- Generator: Adobe Illustrator 27.0.0, SVG Export Plug-In . SVG Version: 6.00 Build 0)  -->
<svg version="1.1" id="Layer_1" xmlns="http://www.w3.org/2000/svg" xmlns:xlink="http://www.w3.org/1999/xlink" x="0px" y="0px"
	 width="200px" height="200px" viewBox="0 0 200 200" style="enable-background:new 0 0 200 200;" xml:space="preserve">
<style type="text/css">
	.st0{clip-path:url(#SVGID_00000142172310837674989090000005080667611776153729_);}
	.st1{fill:#2F5A80;}
</style>
<g>
	<defs>
		<rect id="SVGID_1_" y="29.4" width="200" height="141.2"/>
	</defs>
	<clipPath id="SVGID_00000029752567070435099170000012751861731283151797_">
		<use xlink:href="#SVGID_1_"  style="overflow:visible;"/>
	</clipPath>
	<g style="clip-path:url(#SVGID_00000029752567070435099170000012751861731283151797_);">
		<path class="st1" d="M15.4,29.4c-2,0-3.9,0.4-5.7,1.1l84.9,80.2c2.3,3,6.6,3.5,9.5,1c0.4-0.3,0.7-0.6,1-1l85.2-80.2
			c-1.8-0.7-3.8-1.1-5.7-1.1H15.4z M0.2,42.9C0,43.6,0,44.4,0,45.1v109.8c0,8.6,6.8,15.7,15.4,15.7h169.2c8.4,0,15.4-7,15.4-15.7
			V45.1c0-0.7,0-1.4-0.2-2.1l-84.1,79.2c-8.9,8.3-22.6,8.3-31.5,0L0.1,42.9H0.2z"/>
	</g>
</g>
</svg>
