<?xml version="1.0" encoding="utf-8"?>
<!-- Generator: Adobe Illustrator 27.0.0, SVG Export Plug-In . SVG Version: 6.00 Build 0)  -->
<svg version="1.1" id="Layer_1" xmlns="http://www.w3.org/2000/svg" xmlns:xlink="http://www.w3.org/1999/xlink" x="0px" y="0px"
	 width="291px" height="104px" viewBox="0 0 291 104" style="enable-background:new 0 0 291 104;" xml:space="preserve">
<style type="text/css">
	.st0{fill:#FFF;}
</style>
<g>
	<path class="st0" d="M183.5,61.1L183.5,61.1c-0.3-0.3-0.8-0.2-1.1,0c-3.3,3.9-7.2,5.9-11.6,5.9c-5.4,0.1-11.8-2.6-18.7-8.1
		c-3.8-3-7.2-6.2-10-9.2c1.5,0.4,3.2,0.7,5.3,0.6c4.9-0.4,9.9-3.2,14.8-8.2c13.2-13.4,18.2-27.9,17.3-35.7c-0.3-2.6-1.3-4.5-2.8-5.4
		c-2-1.2-4.4-1.3-7-0.2c-8.4,3.4-19.6,19-29.1,46.6c-0.2,0-0.5-0.3-0.5-0.3l8.6-41.7c0.1-0.4-0.2-0.9-0.6-0.9
		c-0.4-0.1-0.8,0.1-0.9,0.6l-8.5,41c-0.2,0-0.6,0.1-0.7,0.2c-0.2,0.3-0.3,0.7,0,1c0.1,0.2,0.4,0.4,0.4,0.4l-5.7,27.8
		c-0.1,0.4,0.2,0.8,0.6,0.9h0.2c0.3,0,0.6-0.2,0.6-0.6c2-9,4.3-17.4,6.9-25.2c2.8,3,6.3,6.3,10.2,9.4c7.3,5.7,13.8,8.5,19.7,8.5
		c4.9-0.1,9.2-2.2,12.8-6.4C183.9,61.8,183.8,61.3,183.5,61.1z M138.9,52l0.6-2.8c0.1,0.1,0.3,0.3,0.3,0.3
		C139.5,50.3,139.2,51.1,138.9,52z M170.1,2.2c2.2-0.9,4-0.8,5.7,0.1c1.1,0.7,1.9,2.2,2.1,4.4c0.5,3.9-0.7,9.3-3.3,15
		c-3,6.7-7.7,13.4-13.6,19.3c-7.7,7.8-14.6,8.8-19.2,7c3.2-9.3,6.6-17.6,10.4-24.6C158.2,12.1,164.7,4.4,170.1,2.2z"/>
	<path class="st0" d="M198,54.2c0.3,2.4,1.6,3,2.3,3.1c0.2,0,0.6,0.1,0.9,0c3-0.4,5.9-5.6,8.9-11c0.3-0.6,0.6-1.2,1-1.7
		c-0.4,2.9-0.3,6.1,1,8.3c0.9,1.5,2.4,2.3,4.1,2.3c5.5,0.2,10.1-7.2,13-12.1c0,5.5,1.7,9.1,4.7,9.7c0.6,0.2,1.2,0.2,1.8,0.1
		c2.5-0.3,5.1-2.3,7.8-5.8c2.7-3.5,4.6-7.4,5.3-9.3l-0.1,0.1c0.2-0.4,0-0.8-0.4-0.9c-0.4-0.2-0.8,0-1,0.4
		c-1.6,4.4-7.9,15.2-13.1,14.1c-2.4-0.5-3.7-3.8-3.5-8.9c0-0.7,0-1.4,0.1-2.1c0-0.1,0.1-0.2,0.1-0.2v0c0-0.1,0.1-0.2,0.1-0.3
		c1.8-2.9,5.1-10.2,8-17.7c2-5.3,5.4-14.7,4.9-17.2c-0.2-0.4-0.3-0.7-0.6-0.9c-0.2-0.2-0.8-0.4-1.6,0c-2.4,1.2-5.6,8.6-7.7,15
		c-2.4,7.4-4,14.9-4.5,20.6c-0.2,0.4-0.5,0.8-0.7,1.3c-2.6,4.5-7.4,12.8-12.4,12.6c-1.2-0.1-2.2-0.6-2.8-1.7c-1.8-3-0.8-9.2,0.5-12
		c0.2-0.4,0.1-0.8-0.3-1.1c-0.4-0.2-0.8-0.1-1,0.2c-0.6,0.9-1.3,2-2,3.2c-0.2-1.1-0.7-1.9-1.2-2.2c-1-0.9-2.6-1-4-0.2
		c-1.4,0.6-2.6,1.6-3.7,2.9c-0.1,0.1-0.2,0.1-0.3,0.3c-0.2,0.3-0.4,0.6-0.7,1c-0.1,0.1-0.1,0.2-0.2,0.3c-1.3,2-3.5,5.4-6.1,8.2
		c-3.3,3.6-6.5,5.4-9.1,5.1c-2.9-0.3-3.1-3-3.1-4.7c0-0.6,0.1-1.1,0.2-1.7c0.2,0,0.3,0.2,0.5,0.2c2.6,0.4,6-2.2,7.7-4.7
		c1.1-1.7,1.5-3.1,1-4c-0.3-0.5-0.9-1-2.3-1c-2.2,0-4.3,1.4-6,3.9c-1.5,2.1-2.5,4.9-2.6,7.3c-0.2,3.5,1.5,5.8,4.4,6.2
		c0.6,0,1.2,0,1.7-0.1c2.7-0.4,5.7-2.2,8.8-5.5c1-1.1,1.9-2.2,2.8-3.3C198,51.7,197.9,53.1,198,54.2z M241.7,5.9
		c0.2-0.2,0.4-0.3,0.5-0.4c0.1,1-0.6,5.3-4.7,15.8c-2.2,5.7-4.7,11.4-6.5,15.1h0C232.9,24,238.6,8.8,241.7,5.9z M182.7,50.1
		c1.1-3.5,3.7-6.8,6.5-6.8c0.2,0,0.7,0.1,0.9,0.3c0.1,0.3-0.1,1.2-0.8,2.4c-1.5,2.2-4.4,4.4-6.3,4.1H182.7L182.7,50.1L182.7,50.1z
		 M205.9,41.3c0.3-0.1,0.6-0.2,0.9-0.3c0.6-0.1,1.2,0.1,1.6,0.4c0.6,0.5,0.8,1.5,0.5,2.9l0,0c-0.1,0.2,0,0.6,0.2,0.7
		c-0.1,0.2-0.2,0.4-0.3,0.5c-2.5,4.5-5.9,10.6-8.1,10.2c-0.7-0.2-1-1.3-1-1.8c-0.4-1.9,0.2-4.5,1.3-6.9
		C202,44.4,203.9,42.3,205.9,41.3z"/>
	<polygon class="st0" points="2.9,67.4 7.8,67.4 7.8,65.2 2.9,65.2 2.9,61.3 9,61.3 9,59 0,59 0,73.5 2.9,73.5 	"/>
	<path class="st0" d="M16.3,73.7c1.1,0,2.1-0.2,3-0.7c0.9-0.5,1.6-1.2,2.1-2c0.5-0.9,0.8-1.9,0.8-3.1c0-1.2-0.3-2.2-0.8-3.1
		c-0.5-0.9-1.2-1.6-2.1-2c-0.9-0.5-1.9-0.7-3-0.7s-2.1,0.2-3,0.7c-0.9,0.5-1.6,1.1-2.1,2c-0.5,0.9-0.8,1.9-0.8,3.1
		c0,1.2,0.3,2.2,0.8,3.1c0.5,0.9,1.2,1.6,2.1,2C14.1,73.4,15.1,73.7,16.3,73.7z M14.2,65.4c0.6-0.6,1.2-0.9,2.1-0.9s1.5,0.3,2.1,0.9
		c0.6,0.6,0.8,1.4,0.8,2.5c0,1.1-0.3,1.9-0.8,2.5c-0.6,0.6-1.2,0.8-2.1,0.8s-1.5-0.3-2.1-0.8c-0.6-0.6-0.8-1.4-0.8-2.5
		C13.3,66.8,13.6,65.9,14.2,65.4z"/>
	<path class="st0" d="M34.8,69.2h-3.1c-0.1,0.6-0.4,1.1-0.8,1.4c-0.4,0.3-1,0.5-1.7,0.5c-0.8,0-1.4-0.3-1.9-0.8
		c-0.5-0.6-0.8-1.4-0.8-2.5s0.3-1.9,0.8-2.5c0.5-0.6,1.2-0.9,1.9-0.9c0.7,0,1.2,0.2,1.7,0.5c0.4,0.3,0.7,0.8,0.8,1.4h3.1
		c-0.2-1.4-0.9-2.5-1.9-3.3c-1-0.8-2.2-1.2-3.7-1.2c-1.1,0-2.1,0.2-3,0.7c-0.9,0.5-1.5,1.1-2,2c-0.5,0.9-0.7,1.9-0.7,3.1
		c0,1.2,0.2,2.2,0.7,3.1c0.5,0.9,1.2,1.6,2,2c0.9,0.5,1.9,0.7,3,0.7c1.5,0,2.7-0.4,3.7-1.2C33.9,71.7,34.5,70.6,34.8,69.2z"/>
	<path class="st0" d="M44.9,73.5h2.9V62.1h-2.9v6.1c0,1-0.2,1.8-0.7,2.3s-1.2,0.8-2,0.8c-0.8,0-1.4-0.2-1.9-0.7
		c-0.5-0.5-0.7-1.2-0.7-2.1v-6.3h-2.9v6.6c0,1.6,0.4,2.8,1.2,3.6c0.8,0.9,1.8,1.3,3.2,1.3c0.9,0,1.7-0.2,2.4-0.6
		c0.7-0.4,1.2-1,1.5-1.8V73.5z"/>
	<path class="st0" d="M55.2,71.6c-0.7,0-1.2-0.2-1.7-0.5c-0.4-0.3-0.7-0.8-0.7-1.3H50c0.2,1.2,0.7,2.2,1.6,2.9c0.9,0.7,2.1,1,3.6,1
		c1.3,0,2.3-0.3,3.1-0.9c0.8-0.6,1.2-1.4,1.2-2.4c0-0.8-0.2-1.4-0.6-1.9c-0.4-0.5-0.9-0.8-1.4-1c-0.5-0.2-1.2-0.4-2.1-0.6
		c-0.6-0.2-1.1-0.3-1.4-0.4c-0.3-0.1-0.6-0.3-0.8-0.5c-0.2-0.2-0.3-0.4-0.3-0.8c0-0.4,0.1-0.7,0.4-0.9c0.3-0.2,0.7-0.3,1.2-0.3
		c0.6,0,1.1,0.2,1.5,0.5c0.4,0.3,0.6,0.8,0.7,1.3h2.7c-0.2-1.2-0.7-2.1-1.6-2.8c-0.8-0.7-1.9-1.1-3.3-1.1c-1.3,0-2.4,0.3-3.1,0.9
		c-0.8,0.6-1.1,1.4-1.1,2.4c0,0.8,0.2,1.4,0.6,1.8c0.4,0.4,0.8,0.8,1.4,1c0.5,0.2,1.2,0.4,2.1,0.6c0.6,0.2,1.1,0.3,1.4,0.4
		c0.3,0.1,0.6,0.3,0.8,0.5c0.2,0.2,0.4,0.5,0.4,0.8c0,0.4-0.1,0.7-0.4,0.9C56,71.5,55.7,71.6,55.2,71.6z"/>
	<path class="st0" d="M63.7,73c0.9,0.5,1.9,0.7,3,0.7c0.9,0,1.8-0.2,2.6-0.5c0.8-0.4,1.4-0.9,1.9-1.5c0.5-0.6,0.8-1.3,1-2.1h-3.1
		c-0.1,0.6-0.4,1-0.9,1.3c-0.4,0.3-1,0.5-1.7,0.5c-0.8,0-1.4-0.2-1.9-0.7c-0.5-0.5-0.8-1.2-0.8-2.2h8.4c0.1-0.4,0.1-0.7,0.1-1
		c0-1-0.2-2-0.7-2.8c-0.5-0.8-1.1-1.5-2-1.9c-0.8-0.5-1.8-0.7-2.9-0.7c-1.1,0-2.1,0.2-3,0.7c-0.9,0.5-1.5,1.1-2,2
		c-0.5,0.9-0.7,1.9-0.7,3.1c0,1.2,0.2,2.2,0.7,3.1C62.2,71.8,62.8,72.5,63.7,73z M64.7,65c0.5-0.5,1.2-0.7,2-0.7
		c0.8,0,1.4,0.2,1.9,0.7c0.5,0.5,0.8,1.2,0.7,2.1h-5.5C63.9,66.2,64.2,65.5,64.7,65z"/>
	<path class="st0" d="M76.2,73c0.8,0.5,1.6,0.7,2.6,0.7s1.8-0.2,2.5-0.7c0.7-0.5,1.2-1.1,1.5-1.9v2.4h2.9V58.3h-2.9v6.2
		c-0.3-0.8-0.8-1.4-1.5-1.8c-0.7-0.5-1.5-0.7-2.5-0.7s-1.8,0.2-2.6,0.7c-0.8,0.5-1.4,1.1-1.8,2c-0.4,0.9-0.6,1.9-0.6,3.1
		c0,1.2,0.2,2.2,0.6,3.1C74.8,71.8,75.4,72.5,76.2,73z M77.5,65.4c0.5-0.6,1.3-0.9,2.2-0.9c0.9,0,1.6,0.3,2.2,0.9
		c0.6,0.6,0.9,1.4,0.9,2.4c0,1-0.3,1.8-0.9,2.4c-0.6,0.6-1.3,0.9-2.2,0.9c-0.9,0-1.6-0.3-2.2-0.9c-0.5-0.6-0.8-1.4-0.8-2.4
		C76.7,66.8,77,66,77.5,65.4z"/>
	<path class="st0" d="M95,73c0.9,0.5,1.9,0.7,3,0.7c1.1,0,2.1-0.2,3-0.7c0.9-0.5,1.6-1.2,2.1-2c0.5-0.9,0.8-1.9,0.8-3.1
		c0-1.2-0.3-2.2-0.8-3.1c-0.5-0.9-1.2-1.6-2.1-2c-0.9-0.5-1.9-0.7-3-0.7c-1.1,0-2.1,0.2-3,0.7c-0.9,0.5-1.6,1.1-2.1,2
		c-0.5,0.9-0.8,1.9-0.8,3.1c0,1.2,0.3,2.2,0.8,3.1C93.4,71.8,94.1,72.5,95,73z M96,65.4c0.6-0.6,1.2-0.9,2.1-0.9
		c0.8,0,1.5,0.3,2.1,0.9c0.6,0.6,0.8,1.4,0.8,2.5c0,1.1-0.3,1.9-0.8,2.5c-0.6,0.6-1.2,0.8-2.1,0.8c-0.8,0-1.5-0.3-2.1-0.8
		c-0.6-0.6-0.8-1.4-0.8-2.5C95.1,66.8,95.4,65.9,96,65.4z"/>
	<path class="st0" d="M108.8,67.5c0-1,0.2-1.8,0.7-2.3c0.5-0.5,1.2-0.8,2-0.8c0.8,0,1.4,0.3,1.9,0.8c0.5,0.5,0.7,1.2,0.7,2.1v6.3
		h2.9v-6.6c0-1.6-0.4-2.8-1.2-3.6c-0.8-0.9-1.8-1.3-3.1-1.3c-0.9,0-1.7,0.2-2.4,0.7c-0.7,0.4-1.2,1-1.5,1.8v-2.3h-2.9v11.4h2.9V67.5
		z"/>
	<path class="st0" d="M5.3,88.4H0V103h2.9v-5.4h2.4c1.7,0,2.9-0.4,3.8-1.2c0.9-0.8,1.4-1.9,1.4-3.3c0-1.4-0.4-2.5-1.3-3.4
		C8.3,88.8,7,88.4,5.3,88.4z M5,95.2H2.9v-4.5H5c0.9,0,1.6,0.2,2,0.6c0.4,0.4,0.6,0.9,0.6,1.7C7.5,94.5,6.7,95.2,5,95.2z"/>
	<path class="st0" d="M15.3,93.7v-2.2h-2.9V103h2.9v-5.5c0-2,1.1-3,3.2-3h0.8v-3.1c-0.9,0-1.6,0.2-2.3,0.6
		C16.3,92.4,15.7,93,15.3,93.7z"/>
	<path class="st0" d="M29,92.1c-0.8-0.5-1.8-0.7-2.9-0.7c-1.1,0-2.1,0.2-3,0.7c-0.9,0.5-1.5,1.1-2,2c-0.5,0.9-0.7,1.9-0.7,3.1
		c0,1.2,0.2,2.2,0.7,3.1c0.5,0.9,1.2,1.6,2,2c0.9,0.5,1.9,0.7,3,0.7c0.9,0,1.8-0.2,2.6-0.5c0.8-0.4,1.4-0.9,1.9-1.5
		c0.5-0.6,0.8-1.3,1-2.1h-3.1c-0.1,0.6-0.4,1-0.9,1.3c-0.4,0.3-1,0.5-1.7,0.5c-0.8,0-1.4-0.2-1.9-0.7c-0.5-0.5-0.8-1.2-0.8-2.2h8.4
		c0.1-0.4,0.1-0.7,0.1-1c0-1-0.2-2-0.7-2.8C30.5,93.2,29.8,92.6,29,92.1z M23.2,96.5c0.1-0.9,0.4-1.6,0.9-2.1c0.5-0.5,1.2-0.7,2-0.7
		c0.8,0,1.4,0.2,1.9,0.7c0.5,0.5,0.8,1.2,0.7,2.1H23.2z"/>
	<path class="st0" d="M40.7,97c-0.5-0.2-1.2-0.4-2.1-0.6c-0.6-0.2-1.1-0.3-1.4-0.4c-0.3-0.1-0.6-0.3-0.8-0.5
		c-0.2-0.2-0.3-0.4-0.3-0.8c0-0.4,0.1-0.7,0.4-0.9c0.3-0.2,0.7-0.3,1.2-0.3c0.6,0,1.1,0.2,1.5,0.5c0.4,0.3,0.6,0.8,0.7,1.3h2.7
		c-0.2-1.2-0.7-2.1-1.6-2.8c-0.8-0.7-1.9-1.1-3.3-1.1c-1.3,0-2.4,0.3-3.1,0.9c-0.8,0.6-1.1,1.4-1.1,2.4c0,0.8,0.2,1.4,0.6,1.8
		c0.4,0.4,0.8,0.8,1.4,1c0.5,0.2,1.2,0.4,2.1,0.6c0.6,0.2,1.1,0.3,1.4,0.4c0.3,0.1,0.6,0.3,0.8,0.5c0.2,0.2,0.4,0.5,0.4,0.8
		c0,0.4-0.1,0.7-0.4,0.9c-0.3,0.2-0.6,0.4-1.1,0.4c-0.7,0-1.2-0.2-1.7-0.5c-0.4-0.3-0.7-0.8-0.7-1.3h-2.8c0.2,1.2,0.7,2.2,1.6,2.9
		c0.9,0.7,2.1,1,3.6,1c1.3,0,2.3-0.3,3.1-0.9c0.8-0.6,1.2-1.4,1.2-2.4c0-0.8-0.2-1.4-0.6-1.9C41.7,97.5,41.2,97.2,40.7,97z"/>
	<path class="st0" d="M52.9,92.1c-0.8-0.5-1.8-0.7-2.9-0.7c-1.1,0-2.1,0.2-3,0.7c-0.9,0.5-1.5,1.1-2,2c-0.5,0.9-0.7,1.9-0.7,3.1
		c0,1.2,0.2,2.2,0.7,3.1c0.5,0.9,1.2,1.6,2,2c0.9,0.5,1.9,0.7,3,0.7c0.9,0,1.8-0.2,2.6-0.5c0.8-0.4,1.4-0.9,1.9-1.5
		c0.5-0.6,0.8-1.3,1-2.1h-3.1c-0.1,0.6-0.4,1-0.9,1.3c-0.4,0.3-1,0.5-1.7,0.5c-0.8,0-1.4-0.2-1.9-0.7c-0.5-0.5-0.8-1.2-0.8-2.2h8.4
		c0.1-0.4,0.1-0.7,0.1-1c0-1-0.2-2-0.7-2.8C54.4,93.2,53.8,92.6,52.9,92.1z M47.1,96.5c0.1-0.9,0.4-1.6,0.9-2.1
		c0.5-0.5,1.2-0.7,2-0.7c0.8,0,1.4,0.2,1.9,0.7c0.5,0.5,0.8,1.2,0.7,2.1H47.1z"/>
	<path class="st0" d="M60.5,93.7v-2.2h-2.9V103h2.9v-5.5c0-2,1.1-3,3.2-3h0.8v-3.1c-0.9,0-1.6,0.2-2.3,0.6
		C61.5,92.4,61,93,60.5,93.7z"/>
	<polygon class="st0" points="71.1,100.1 68.2,91.5 65.1,91.5 69.3,103 72.9,103 77.1,91.5 74,91.5 	"/>
	<path class="st0" d="M87.1,93.9c-0.3-0.8-0.8-1.4-1.5-1.8s-1.5-0.7-2.5-0.7c-1,0-1.8,0.2-2.6,0.7c-0.8,0.5-1.4,1.1-1.8,2
		c-0.4,0.9-0.6,1.9-0.6,3.1c0,1.2,0.2,2.2,0.6,3.1c0.4,0.9,1,1.6,1.8,2c0.8,0.5,1.6,0.7,2.6,0.7c1,0,1.8-0.2,2.5-0.7
		c0.7-0.5,1.2-1.1,1.5-1.9v2.4H90V91.5h-2.9V93.9z M86.3,99.7c-0.6,0.6-1.3,0.9-2.2,0.9c-0.9,0-1.6-0.3-2.2-0.9
		c-0.5-0.6-0.8-1.4-0.8-2.4c0-1,0.3-1.8,0.8-2.4c0.5-0.6,1.3-0.9,2.2-0.9c0.9,0,1.6,0.3,2.2,0.9c0.6,0.6,0.9,1.4,0.9,2.4
		C87.1,98.3,86.8,99.1,86.3,99.7z"/>
	<path class="st0" d="M96.5,100.1c-0.2-0.2-0.3-0.6-0.3-1.2v-5h2.6v-2.5h-2.6v-2.8h-2.9v2.8h-1.6V94h1.6v4.9c0,1.4,0.3,2.5,1,3.1
		c0.7,0.6,1.7,0.9,2.9,0.9h1.5v-2.5h-1.1C97.1,100.5,96.7,100.4,96.5,100.1z"/>
	<path class="st0" d="M102.3,86.7c-0.5,0-1,0.2-1.3,0.5c-0.3,0.3-0.5,0.7-0.5,1.1c0,0.5,0.2,0.8,0.5,1.1c0.3,0.3,0.8,0.4,1.3,0.4
		c0.5,0,1-0.1,1.3-0.4c0.3-0.3,0.5-0.7,0.5-1.1c0-0.5-0.2-0.8-0.5-1.1C103.3,86.8,102.8,86.7,102.3,86.7z"/>
	<rect x="100.8" y="91.5" class="st0" width="2.9" height="11.4"/>
	<path class="st0" d="M114.6,92.1c-0.9-0.5-1.9-0.7-3-0.7s-2.1,0.2-3,0.7c-0.9,0.5-1.6,1.1-2.1,2c-0.5,0.9-0.8,1.9-0.8,3.1
		c0,1.2,0.3,2.2,0.8,3.1c0.5,0.9,1.2,1.6,2.1,2c0.9,0.5,1.9,0.7,3,0.7s2.1-0.2,3-0.7c0.9-0.5,1.6-1.2,2.1-2c0.5-0.9,0.8-1.9,0.8-3.1
		c0-1.2-0.3-2.2-0.8-3.1C116.2,93.2,115.5,92.6,114.6,92.1z M113.7,99.7c-0.6,0.6-1.2,0.8-2.1,0.8s-1.5-0.3-2.1-0.8
		c-0.6-0.6-0.8-1.4-0.8-2.5c0-1.1,0.3-1.9,0.8-2.5c0.6-0.6,1.2-0.9,2.1-0.9s1.5,0.3,2.1,0.9c0.6,0.6,0.8,1.4,0.8,2.5
		C114.5,98.3,114.2,99.2,113.7,99.7z"/>
	<path class="st0" d="M126.3,91.4c-0.9,0-1.7,0.2-2.4,0.7c-0.7,0.4-1.2,1-1.5,1.8v-2.3h-2.9V103h2.9v-6.1c0-1,0.2-1.8,0.7-2.3
		c0.5-0.5,1.2-0.8,2-0.8c0.8,0,1.4,0.3,1.9,0.8c0.5,0.5,0.7,1.2,0.7,2.1v6.3h2.9v-6.6c0-1.6-0.4-2.8-1.2-3.6
		C128.7,91.8,127.6,91.4,126.3,91.4z"/>
	<path class="st0" d="M146.1,93.9c-0.3-0.8-0.8-1.4-1.5-1.8c-0.7-0.5-1.5-0.7-2.5-0.7s-1.8,0.2-2.6,0.7c-0.8,0.5-1.4,1.1-1.8,2
		c-0.4,0.9-0.6,1.9-0.6,3.1c0,1.2,0.2,2.2,0.6,3.1c0.4,0.9,1,1.6,1.8,2c0.8,0.5,1.6,0.7,2.6,0.7s1.8-0.2,2.5-0.7
		c0.7-0.5,1.2-1.1,1.5-1.9v2.4h2.9V91.5h-2.9V93.9z M145.2,99.7c-0.6,0.6-1.3,0.9-2.2,0.9c-0.9,0-1.6-0.3-2.2-0.9
		c-0.5-0.6-0.8-1.4-0.8-2.4c0-1,0.3-1.8,0.8-2.4c0.5-0.6,1.3-0.9,2.2-0.9c0.9,0,1.6,0.3,2.2,0.9c0.6,0.6,0.9,1.4,0.9,2.4
		C146.1,98.3,145.8,99.1,145.2,99.7z"/>
	<path class="st0" d="M158.4,91.4c-0.9,0-1.7,0.2-2.4,0.7c-0.7,0.4-1.2,1-1.5,1.8v-2.3h-2.9V103h2.9v-6.1c0-1,0.2-1.8,0.7-2.3
		c0.5-0.5,1.2-0.8,2-0.8c0.8,0,1.4,0.3,1.9,0.8c0.5,0.5,0.7,1.2,0.7,2.1v6.3h2.9v-6.6c0-1.6-0.4-2.8-1.2-3.6
		C160.8,91.8,159.7,91.4,158.4,91.4z"/>
	<path class="st0" d="M173.7,93.9c-0.3-0.8-0.8-1.4-1.5-1.8c-0.7-0.5-1.5-0.7-2.5-0.7s-1.8,0.2-2.6,0.7c-0.8,0.5-1.4,1.1-1.8,2
		c-0.4,0.9-0.6,1.9-0.6,3.1c0,1.2,0.2,2.2,0.6,3.1c0.4,0.9,1,1.6,1.8,2c0.8,0.5,1.6,0.7,2.6,0.7s1.8-0.2,2.5-0.7
		c0.7-0.5,1.2-1.1,1.5-1.9v2.4h2.9V87.7h-2.9V93.9z M172.8,99.7c-0.6,0.6-1.3,0.9-2.2,0.9c-0.9,0-1.6-0.3-2.2-0.9
		c-0.5-0.6-0.8-1.4-0.8-2.4c0-1,0.3-1.8,0.8-2.4c0.5-0.6,1.3-0.9,2.2-0.9c0.9,0,1.6,0.3,2.2,0.9c0.6,0.6,0.9,1.4,0.9,2.4
		C173.7,98.3,173.4,99.1,172.8,99.7z"/>
	<path class="st0" d="M193.5,95.7c0.6-0.7,0.9-1.7,0.9-2.8c0-1.3-0.4-2.4-1.3-3.3c-0.9-0.8-2.2-1.2-3.8-1.2h-5.5V103h2.9v-5.7h1.3
		l3.4,5.7h3.2l-3.6-5.8C192,96.9,192.9,96.4,193.5,95.7z M189,95.3h-2.4v-4.4h2.4c0.9,0,1.5,0.2,1.9,0.6c0.4,0.4,0.6,0.9,0.6,1.6
		C191.5,94.6,190.6,95.3,189,95.3z"/>
	<path class="st0" d="M204.4,92.1c-0.8-0.5-1.8-0.7-2.9-0.7c-1.1,0-2.1,0.2-3,0.7c-0.9,0.5-1.5,1.1-2,2c-0.5,0.9-0.7,1.9-0.7,3.1
		c0,1.2,0.2,2.2,0.7,3.1c0.5,0.9,1.2,1.6,2,2c0.9,0.5,1.9,0.7,3,0.7c0.9,0,1.8-0.2,2.6-0.5c0.8-0.4,1.4-0.9,1.9-1.5
		c0.5-0.6,0.8-1.3,1-2.1h-3.1c-0.1,0.6-0.4,1-0.9,1.3c-0.4,0.3-1,0.5-1.7,0.5c-0.8,0-1.4-0.2-1.9-0.7c-0.5-0.5-0.8-1.2-0.8-2.2h8.4
		c0.1-0.4,0.1-0.7,0.1-1c0-1-0.2-2-0.7-2.8C205.9,93.2,205.3,92.6,204.4,92.1z M198.6,96.5c0.1-0.9,0.3-1.6,0.9-2.1
		c0.5-0.5,1.2-0.7,2-0.7c0.8,0,1.4,0.2,1.9,0.7c0.5,0.5,0.8,1.2,0.7,2.1H198.6z"/>
	<path class="st0" d="M216.1,97c-0.5-0.2-1.2-0.4-2.1-0.6c-0.6-0.2-1.1-0.3-1.4-0.4c-0.3-0.1-0.6-0.3-0.8-0.5
		c-0.2-0.2-0.3-0.4-0.3-0.8c0-0.4,0.1-0.7,0.4-0.9c0.3-0.2,0.7-0.3,1.2-0.3c0.6,0,1.1,0.2,1.5,0.5c0.4,0.3,0.6,0.8,0.7,1.3h2.7
		c-0.2-1.2-0.7-2.1-1.6-2.8c-0.8-0.7-2-1.1-3.3-1.1c-1.3,0-2.4,0.3-3.1,0.9c-0.8,0.6-1.1,1.4-1.1,2.4c0,0.8,0.2,1.4,0.6,1.8
		c0.4,0.4,0.8,0.8,1.4,1c0.5,0.2,1.2,0.4,2.1,0.6c0.6,0.2,1.1,0.3,1.4,0.4c0.3,0.1,0.6,0.3,0.8,0.5c0.2,0.2,0.3,0.5,0.3,0.8
		c0,0.4-0.1,0.7-0.4,0.9c-0.3,0.2-0.6,0.4-1.1,0.4c-0.7,0-1.2-0.2-1.7-0.5c-0.4-0.3-0.7-0.8-0.7-1.3h-2.8c0.2,1.2,0.7,2.2,1.6,2.9
		c0.9,0.7,2.1,1,3.6,1c1.3,0,2.3-0.3,3.1-0.9c0.8-0.6,1.2-1.4,1.2-2.4c0-0.8-0.2-1.4-0.6-1.9C217.1,97.5,216.7,97.2,216.1,97z"/>
	<path class="st0" d="M228.5,92.1c-0.9-0.5-1.9-0.7-3-0.7s-2.1,0.2-3,0.7c-0.9,0.5-1.6,1.1-2.1,2c-0.5,0.9-0.8,1.9-0.8,3.1
		c0,1.2,0.3,2.2,0.8,3.1c0.5,0.9,1.2,1.6,2.1,2c0.9,0.5,1.9,0.7,3,0.7s2.1-0.2,3-0.7c0.9-0.5,1.6-1.2,2.1-2c0.5-0.9,0.8-1.9,0.8-3.1
		c0-1.2-0.3-2.2-0.8-3.1C230.1,93.2,229.4,92.6,228.5,92.1z M227.6,99.7c-0.6,0.6-1.2,0.8-2.1,0.8s-1.5-0.3-2.1-0.8
		c-0.6-0.6-0.8-1.4-0.8-2.5c0-1.1,0.3-1.9,0.8-2.5c0.6-0.6,1.2-0.9,2.1-0.9s1.5,0.3,2.1,0.9c0.6,0.6,0.8,1.4,0.8,2.5
		C228.5,98.3,228.2,99.2,227.6,99.7z"/>
	<rect x="233.5" y="87.7" class="st0" width="2.9" height="15.2"/>
	<path class="st0" d="M247,97.6c0,1-0.2,1.8-0.7,2.3c-0.5,0.5-1.2,0.8-2,0.8c-0.8,0-1.4-0.2-1.9-0.7c-0.5-0.5-0.7-1.2-0.7-2.1v-6.3
		h-2.9v6.6c0,1.6,0.4,2.8,1.2,3.6c0.8,0.9,1.8,1.3,3.2,1.3c0.9,0,1.7-0.2,2.4-0.6c0.7-0.4,1.2-1,1.5-1.8v2.3h2.9V91.5H247V97.6z"/>
	<path class="st0" d="M256.4,100.1c-0.2-0.2-0.3-0.6-0.3-1.2v-5h2.6v-2.5h-2.6v-2.8h-2.9v2.8h-1.6V94h1.6v4.9c0,1.4,0.3,2.5,1,3.1
		c0.7,0.6,1.7,0.9,2.9,0.9h1.5v-2.5h-1.1C257,100.5,256.6,100.4,256.4,100.1z"/>
	<path class="st0" d="M262.2,86.7c-0.5,0-1,0.2-1.3,0.5c-0.3,0.3-0.5,0.7-0.5,1.1c0,0.5,0.2,0.8,0.5,1.1c0.3,0.3,0.8,0.4,1.3,0.4
		c0.5,0,1-0.1,1.3-0.4c0.3-0.3,0.5-0.7,0.5-1.1c0-0.5-0.2-0.8-0.5-1.1C263.2,86.8,262.7,86.7,262.2,86.7z"/>
	<rect x="260.7" y="91.5" class="st0" width="2.9" height="11.4"/>
	<path class="st0" d="M274.5,92.1c-0.9-0.5-1.9-0.7-3-0.7c-1.1,0-2.1,0.2-3,0.7c-0.9,0.5-1.6,1.1-2.1,2c-0.5,0.9-0.8,1.9-0.8,3.1
		c0,1.2,0.3,2.2,0.8,3.1c0.5,0.9,1.2,1.6,2.1,2c0.9,0.5,1.9,0.7,3,0.7c1.1,0,2.1-0.2,3-0.7c0.9-0.5,1.6-1.2,2.1-2
		c0.5-0.9,0.8-1.9,0.8-3.1c0-1.2-0.3-2.2-0.8-3.1C276.1,93.2,275.4,92.6,274.5,92.1z M273.6,99.7c-0.6,0.6-1.2,0.8-2.1,0.8
		c-0.8,0-1.5-0.3-2.1-0.8c-0.6-0.6-0.8-1.4-0.8-2.5c0-1.1,0.3-1.9,0.8-2.5c0.6-0.6,1.2-0.9,2.1-0.9c0.8,0,1.5,0.3,2.1,0.9
		c0.6,0.6,0.8,1.4,0.8,2.5C274.4,98.3,274.1,99.2,273.6,99.7z"/>
	<path class="st0" d="M289.4,92.7c-0.8-0.9-1.8-1.3-3.2-1.3c-0.9,0-1.7,0.2-2.4,0.7c-0.7,0.4-1.2,1-1.5,1.8v-2.3h-2.9V103h2.9v-6.1
		c0-1,0.2-1.8,0.7-2.3c0.5-0.5,1.2-0.8,2-0.8c0.8,0,1.4,0.3,1.9,0.8c0.5,0.5,0.7,1.2,0.7,2.1v6.3h2.9v-6.6
		C290.5,94.8,290.2,93.5,289.4,92.7z"/>
</g>
</svg>
