<?xml version="1.0" encoding="utf-8"?>
<!-- Generator: Adobe Illustrator 27.0.0, SVG Export Plug-In . SVG Version: 6.00 Build 0)  -->
<svg version="1.1" id="Layer_1" xmlns="http://www.w3.org/2000/svg" xmlns:xlink="http://www.w3.org/1999/xlink" x="0px" y="0px"
	 width="200px" height="200px" viewBox="0 0 200 200" style="enable-background:new 0 0 200 200;" xml:space="preserve">
<style type="text/css">
	.st0{fill:#2F5A81;}
</style>
<path class="st0" d="M154.9,29.4c4.2,0,8.1,1.6,11.1,4.6c3,3,4.6,6.9,4.6,11.1v109.9c0,4.2-1.6,8.1-4.6,11.1s-6.9,4.6-11.1,4.6H45.1
	c-4.2,0-8.1-1.6-11.1-4.6s-4.6-6.9-4.6-11.1V45.1C29.4,40.9,31,37,34,34c3-3,6.9-4.6,11.1-4.6H154.9z M151,151v-41.6
	c0-6.8-2.7-13.3-7.5-18.1c-4.8-4.8-11.3-7.5-18.1-7.5c-6.6,0-14.4,4.1-18.2,10.2v-8.7H85.3V151h21.9v-38.7c0-6.1,4.9-11,10.9-11
	c2.9,0,5.7,1.1,7.8,3.2c2,2,3.2,4.9,3.2,7.8V151H151z M59.8,73c3.5,0,6.8-1.4,9.3-3.9s3.9-5.8,3.9-9.3c0-7.3-5.9-13.3-13.2-13.3
	c-3.5,0-6.9,1.4-9.4,3.9c-2.5,2.5-3.9,5.9-3.9,9.4C46.6,67.1,52.6,73,59.8,73z M70.8,151V85.3H49V151H70.8z"/>
</svg>
