<?xml version="1.0" encoding="utf-8"?>
<!-- Generator: Adobe Illustrator 27.0.0, SVG Export Plug-In . SVG Version: 6.00 Build 0)  -->
<svg version="1.1" id="Layer_1" xmlns="http://www.w3.org/2000/svg" xmlns:xlink="http://www.w3.org/1999/xlink" x="0px" y="0px"
	 viewBox="0 0 200 200" style="enable-background:new 0 0 200 200;" xml:space="preserve">
<style type="text/css">
	.st0{fill:#FFFFFF;}
</style>
<g>
	<path class="st0" d="M197.5,38.6c0-10.1-6.6-19.7-18.1-26.4c-10.8-6.3-25-9.7-40-9.7c-15,0-29.2,3.5-40,9.7
		c-11.5,6.7-18.1,16.3-18.1,26.4c0,0,0,0,0,0c0,0,0,0,0,0v40.9v40.9v40.9c0,20.2,25.5,36.1,58.1,36.1c32.6,0,58.1-15.9,58.1-36.1
		v-40.9V79.5V38.6C197.5,38.6,197.5,38.6,197.5,38.6C197.5,38.6,197.5,38.6,197.5,38.6z M92.2,100.7c10.4,9.1,27.5,14.9,47.2,14.9
		c19.7,0,36.8-5.8,47.2-14.9v19.7c0,13.7-21.6,25.3-47.2,25.3c-25.6,0-47.2-11.6-47.2-25.3V100.7z M139.4,104.8
		c-25.6,0-47.2-11.6-47.2-25.3V59.8c2.1,1.9,4.6,3.6,7.3,5.2c10.8,6.3,25,9.7,40,9.7c15,0,29.2-3.5,40-9.7c2.7-1.6,5.1-3.3,7.3-5.2
		v19.8C186.7,93.2,165,104.8,139.4,104.8z M104.9,21.6c9-5.2,21.6-8.3,34.5-8.3c12.9,0,25.5,3,34.5,8.3c8.1,4.7,12.7,10.9,12.7,17
		c0,6.1-4.6,12.3-12.7,17c-9,5.2-21.6,8.3-34.5,8.3c-12.9,0-25.5-3-34.5-8.3c-8.1-4.7-12.7-10.9-12.7-17
		C92.2,32.5,96.8,26.3,104.9,21.6z M139.4,186.7c-25.6,0-47.2-11.6-47.2-25.3v-19.7c10.4,9.1,27.5,14.9,47.2,14.9
		c19.7,0,36.8-5.8,47.2-14.9v19.7C186.7,175.1,165,186.7,139.4,186.7z"/>
	<path class="st0" d="M51.3,81c0-6.5-2.5-12.6-7.1-17.2c-4.6-4.6-10.7-7.1-17.2-7.1h-19c-3,0-5.4,2.4-5.4,5.4v75.8
		c0,3,2.4,5.4,5.4,5.4s5.4-2.4,5.4-5.4v-32.5h1.4l26.8,35.7c1.1,1.4,2.7,2.2,4.3,2.2c1.1,0,2.3-0.4,3.2-1.1c2.4-1.8,2.9-5.2,1.1-7.6
		l-22-29.3c6-0.3,11.6-2.8,15.9-7.1C48.7,93.7,51.3,87.6,51.3,81z M36.5,90.6c-2.6,2.6-6,4-9.6,4h-9.4c0,0-0.1,0-0.1,0h-4V67.5h13.5
		c3.6,0,7,1.4,9.6,4c2.6,2.6,4,6,4,9.6C40.4,84.7,39,88.1,36.5,90.6z"/>
</g>
</svg>
