<?xml version="1.0" encoding="utf-8"?>
<!-- Generator: Adobe Illustrator 27.0.0, SVG Export Plug-In . SVG Version: 6.00 Build 0)  -->
<svg version="1.1" id="Layer_1" xmlns="http://www.w3.org/2000/svg" xmlns:xlink="http://www.w3.org/1999/xlink" x="0px" y="0px"
	 width="200px" height="200px" viewBox="0 0 200 200" style="enable-background:new 0 0 200 200;" xml:space="preserve">
<style type="text/css">
	.st0{fill:#2F5A81;}
</style>
<g>
	<path class="st0" d="M181.9,9.7C171.2,3.4,157,0,142,0c-15,0-29.1,3.4-39.9,9.7C90.7,16.4,84.1,26,84.1,36v40.8v40.8v40.8
		c0,20.2,25.5,36,58,36c32.5,0,58-15.8,58-36v-40.8V76.9V36C200,26,193.4,16.4,181.9,9.7z M107.6,19c9-5.2,21.5-8.2,34.4-8.2
		c12.9,0,25.5,3,34.4,8.2c8.1,4.7,12.7,10.9,12.7,17c0,6.1-4.6,12.3-12.7,17c-9,5.2-21.5,8.2-34.4,8.2c-12.9,0-25.5-3-34.4-8.2
		c-8.1-4.7-12.7-10.9-12.7-17C94.9,29.9,99.5,23.8,107.6,19z M94.9,98c10.4,9.1,27.5,14.9,47.1,14.9c19.7,0,36.7-5.8,47.1-14.9v19.7
		c0,13.7-21.6,25.2-47.1,25.2c-25.6,0-47.1-11.6-47.1-25.2V98z M142,102.1c-25.6,0-47.1-11.6-47.1-25.2V57.2
		c2.1,1.9,4.6,3.6,7.3,5.2c10.7,6.3,24.9,9.7,39.9,9.7c15,0,29.1-3.4,39.9-9.7c2.7-1.6,5.1-3.3,7.3-5.2v19.7
		C189.2,90.5,167.6,102.1,142,102.1z M142,183.8c-25.6,0-47.1-11.6-47.1-25.2v-19.7c10.4,9.1,27.5,14.9,47.1,14.9
		c19.7,0,36.7-5.8,47.1-14.9v19.7C189.2,172.2,167.6,183.8,142,183.8z"/>
	<path class="st0" d="M21.2,72.1h26.3c3,0,5.4-2.4,5.4-5.4s-2.4-5.4-5.4-5.4H31.8v-4.8c0-3-2.4-5.4-5.4-5.4S21,53.5,21,56.5v4.8
		c-5.6,0-10.8,2.2-14.8,6C2.3,71.1,0,76.5,0,82c0,5.5,2.3,10.8,6.3,14.7c4,3.9,9.3,6,14.9,6h10.5c2.8,0,5.4,1.1,7.4,3
		c1.9,1.9,3,4.3,3,7c0,2.6-1.1,5.1-3,7c-1.9,1.9-4.6,3-7.4,3H5.4c-3,0-5.4,2.4-5.4,5.4c0,3,2.4,5.4,5.4,5.4H21v4.8
		c0,3,2.4,5.4,5.4,5.4s5.4-2.4,5.4-5.4v-4.8c5.6,0,10.8-2.2,14.8-6c4-3.9,6.3-9.2,6.3-14.7c0-5.5-2.3-10.8-6.3-14.7
		c-4-3.9-9.3-6-14.9-6H21.2c-2.8,0-5.4-1.1-7.4-3c-1.9-1.9-3-4.3-3-7c0-2.6,1.1-5.1,3-7C15.7,73.1,18.4,72.1,21.2,72.1z"/>
</g>
</svg>
