<?xml version="1.0" encoding="utf-8"?>
<!-- Generator: Adobe Illustrator 27.0.0, SVG Export Plug-In . SVG Version: 6.00 Build 0)  -->
<svg version="1.1" id="Layer_1" xmlns="http://www.w3.org/2000/svg" xmlns:xlink="http://www.w3.org/1999/xlink" x="0px" y="0px"
	 width="200px" height="200px" viewBox="0 0 200 200" style="enable-background:new 0 0 200 200;" xml:space="preserve">
<style type="text/css">
	.st0{fill:#2F5A81;}
</style>
<g>
	<path class="st0" d="M65.1,90.3c12.1,0,23.4-4.7,31.9-13.2c8.5-8.5,13.2-19.9,13.2-31.9c0-12.1-4.7-23.4-13.2-31.9S77.2,0,65.1,0
		S41.7,4.7,33.2,13.2c-8.5,8.5-13.2,19.9-13.2,31.9c0,12.1,4.7,23.4,13.2,31.9C41.7,85.6,53,90.3,65.1,90.3z M40.6,20.7
		c6.5-6.5,15.2-10.1,24.5-10.1S83,14.2,89.6,20.7c6.5,6.5,10.1,15.2,10.1,24.5c0,9.2-3.6,17.9-10.1,24.5
		C83,76.2,74.3,79.8,65.1,79.8s-17.9-3.6-24.5-10.1c-6.5-6.5-10.1-15.2-10.1-24.5C30.5,35.9,34.1,27.2,40.6,20.7z"/>
	<path class="st0" d="M85,119.6H45.2c-12.1,0-23.4,4.7-31.9,13.2C4.7,141.4,0,152.7,0,164.8v19.9c0,2.9,2.4,5.3,5.3,5.3
		s5.3-2.4,5.3-5.3v-19.9c0-9.2,3.6-17.9,10.1-24.5c6.5-6.5,15.2-10.1,24.5-10.1H85c9.2,0,17.9,3.6,24.5,10.1
		c6.5,6.5,10.1,15.2,10.1,24.5v19.9c0,2.9,2.4,5.3,5.3,5.3c2.9,0,5.3-2.4,5.3-5.3v-19.9c0-12.1-4.7-23.4-13.2-31.9
		C108.5,124.3,97.1,119.6,85,119.6z"/>
	<path class="st0" d="M198.5,61.4c-2.1-2.1-5.4-2.1-7.5,0l-36.2,36.1l-16.2-16.2c-2.1-2.1-5.4-2.1-7.5,0s-2.1,5.4,0,7.5l19.9,19.9
		c1,1,2.4,1.5,3.7,1.5c1.4,0,2.7-0.5,3.7-1.5l39.9-39.9C200.5,66.8,200.5,63.4,198.5,61.4z"/>
</g>
</svg>
