<?xml version="1.0" encoding="utf-8"?>
<!-- Generator: Adobe Illustrator 27.0.0, SVG Export Plug-In . SVG Version: 6.00 Build 0)  -->
<svg version="1.1" id="Layer_1" xmlns="http://www.w3.org/2000/svg" xmlns:xlink="http://www.w3.org/1999/xlink" x="0px" y="0px"
	 width="200px" height="200px" viewBox="0 0 200 200" style="enable-background:new 0 0 200 200;" xml:space="preserve">
<style type="text/css">
	.st0{fill:#FFFFFF;}
</style>
<g>
	<path class="st0" d="M75,179.7H25.1c-3.9,0-7.7-1.6-10.5-4.3c-2.8-2.8-4.3-6.5-4.3-10.5V25.1c0-4,1.5-7.7,4.3-10.5
		c2.8-2.8,6.6-4.3,10.5-4.3h64.7v34.8c0,4,1.6,7.8,4.4,10.7c2.9,2.9,6.7,4.4,10.7,4.4h34.8V100c0,2.8,2.3,5.2,5.2,5.2
		c2.8,0,5.2-2.3,5.2-5.2V55.1c0-0.7-0.1-1.4-0.4-2c-0.3-0.6-0.6-1.2-1.1-1.7L98.7,1.5c-0.5-0.5-1-0.8-1.7-1.1C96.4,0.1,95.7,0,95,0
		H25.1c-6.7,0-13,2.6-17.8,7.4C2.6,12.1,0,18.4,0,25.1v139.8c0,6.7,2.6,13,7.4,17.8c4.7,4.7,11.1,7.4,17.8,7.4H75
		c2.8,0,5.2-2.3,5.2-5.2S77.9,179.7,75,179.7z M101.6,48.5c-0.9-0.9-1.4-2.1-1.4-3.4V17.6l32.3,32.3H105
		C103.7,49.9,102.5,49.4,101.6,48.5z"/>
	<path class="st0" d="M168.5,191.2l-24-24c3.6-5,5.5-11,5.5-17.3c0-8-3.1-15.6-8.8-21.3c-5.7-5.7-13.3-8.8-21.3-8.8
		c-8,0-15.6,3.1-21.3,8.8s-8.8,13.2-8.8,21.3c0,8,3.1,15.6,8.8,21.3c5.7,5.7,13.2,8.8,21.3,8.8c6.3,0,12.3-1.9,17.3-5.5l24,24
		c1,1,2.3,1.5,3.6,1.5c1.3,0,2.6-0.5,3.6-1.5C170.6,196.5,170.6,193.2,168.5,191.2z M106,163.9c-3.7-3.7-5.8-8.7-5.8-14
		c0-5.2,2.1-10.3,5.8-14c3.7-3.7,8.7-5.8,14-5.8c5.3,0,10.3,2.1,14,5.8c3.7,3.7,5.8,8.8,5.8,14c0,5.3-2.1,10.3-5.8,14
		C126.5,171.4,113.4,171.4,106,163.9z"/>
</g>
</svg>
